<?xml version="1.0" encoding="UTF-8" standalone="no"?>
<!-- Created with Inkscape (http://www.inkscape.org/) -->

<svg
   xmlns:dc="http://purl.org/dc/elements/1.1/"
   xmlns:cc="http://creativecommons.org/ns#"
   xmlns:rdf="http://www.w3.org/1999/02/22-rdf-syntax-ns#"
   xmlns:svg="http://www.w3.org/2000/svg"
   xmlns="http://www.w3.org/2000/svg"
   xmlns:sodipodi="http://sodipodi.sourceforge.net/DTD/sodipodi-0.dtd"
   xmlns:inkscape="http://www.inkscape.org/namespaces/inkscape"
   width="1220mm"
   height="610mm"
   viewBox="0 0 1220 610"
   version="1.1"
   id="svg896"
   inkscape:version="0.92.3 (2405546, 2018-03-11)"
   sodipodi:docname="Enclosure Laser Cut Layout.svg">
  <defs
     id="defs890" />
  <sodipodi:namedview
     id="base"
     pagecolor="#ffffff"
     bordercolor="#666666"
     borderopacity="1.0"
     inkscape:pageopacity="0.0"
     inkscape:pageshadow="2"
     inkscape:zoom="2.3993979"
     inkscape:cx="658.04576"
     inkscape:cy="938.68674"
     inkscape:document-units="mm"
     inkscape:current-layer="layer1"
     showgrid="false"
     inkscape:window-width="1600"
     inkscape:window-height="832"
     inkscape:window-x="0"
     inkscape:window-y="0"
     inkscape:window-maximized="1" />
  <metadata
     id="metadata893">
    <rdf:RDF>
      <cc:Work
         rdf:about="">
        <dc:format>image/svg+xml</dc:format>
        <dc:type
           rdf:resource="http://purl.org/dc/dcmitype/StillImage" />
        <dc:title />
      </cc:Work>
    </rdf:RDF>
  </metadata>
  <g
     inkscape:label="Layer 1"
     inkscape:groupmode="layer"
     id="layer1"
     transform="translate(0,313)">
    <path
       id="path2983"
       style="fill:none;stroke:#000000;stroke-width:0.15875001;stroke-linecap:round"
       d="m 338.86086,270.53047 a 1.7000008,1.7000008 0 1 0 -3.4,0 1.7000008,1.7000008 0 1 0 3.4,0 z m 0,-12.69999 a 1.7000008,1.7000008 0 1 0 -3.4,0 1.7000008,1.7000008 0 1 0 3.4,0 z m 12.2473,39.16948 h 11.2776 m 0,0 V 182.69998 m -11.2776,0 h 11.2776 m -11.2776,3.175 v -3.175 m 0,3.175 h -6.35 m 0,0 v -3.175 m -6.35,0 h 6.35 m -6.35,3.175 v -3.175 m 0,3.175 h -6.35 m 0,0 v -3.175 m -6.35,0 h 6.35 m -6.35,3.175 v -3.175 m 0,3.175 h -6.35 m 0,0 v -3.175 m -6.35,0 h 6.35 m -6.35,3.175 v -3.175 m 0,3.175 h -6.35 m 0,0 v -3.175 m -6.35,0 h 6.35 m -6.35,3.175 v -3.175 m 0,3.175 h -6.35 m 0,0 v -3.175 m -6.35,0 h 6.35 m -6.35,3.175 v -3.175 m 0,3.175 h -6.35 m 0,0 v -3.175 m -6.35,0 h 6.35 m -6.35,3.175 v -3.175 m 0,3.175 h -6.35 m 0,0 v -3.175 m -6.35,0 h 6.35 m -6.35,3.175 v -3.175 m 0,3.175 h -6.35 m 0,0 v -3.175 m -6.35,0 h 6.35 m -6.35,3.175 v -3.175 m 0,3.175 h -6.35 m 0,0 v -3.175 m -6.35,0 h 6.35 m -6.35,3.175 v -3.175 m 0,3.175 h -6.35 m 0,0 v -3.175 m -6.35,0 h 6.35 m -6.35,3.175 v -3.175 m 0,3.175 h -6.35 m 0,0 v -3.175 m -6.35,0 h 6.35 m -6.35,3.175 v -3.175 m 0,3.175 h -6.35 m 0,0 v -3.175 m -6.35,0 h 6.35 m -6.35,3.175 v -3.175 m 0,3.175 h -6.35 m 0,0 v -3.175 m -6.35,0 h 6.35 m -6.35,0 v 9.525 m 0,0 h -3.175 m 0,6.35 v -6.35 m 3.175,6.35 h -3.175 m 3.175,0 v 6.35 m 0,0 h -3.175 m 0,6.35 v -6.35 m 3.175,6.35 h -3.175 m 3.175,0 v 6.35 m 0,0 h -3.175 m 0,6.35 v -6.35 m 3.175,6.35 h -3.175 m 3.175,0 v 6.35 m 0,0 h -3.175 m 0,6.35 v -6.35 m 3.175,6.35 h -3.175 m 3.175,0 v 6.35 m 0,0 h -3.175 m 0,6.35 v -6.35 m 3.175,6.35 h -3.175 m 3.175,0 v 6.35 m 0,0 h -3.175 m 0,6.35 v -6.35 m 3.175,6.35 h -3.175 m 3.175,0 v 6.34999 m 0,0 h -3.175 m 0,6.35 v -6.35 m 3.175,6.35 h -3.175 m 3.175,0 v 6.35 m 0,0 h -3.175 m 0,6.34999 v -6.34999 m 3.175,6.34999 h -3.175 m 3.175,0 v 9.525 m 0,0 h 6.35 m 0,-3.175 v 3.175 m 0,-3.175 h 6.35 m 0,0 v 3.175 m 0,0 h 6.35 m 0,-3.175 v 3.175 m 0,-3.175 h 6.35 m 0,0 v 3.175 m 0,0 h 6.35 m 0,-3.175 v 3.175 m 0,-3.175 h 6.35 m 0,0 v 3.175 m 0,0 h 6.35 m 0,-3.175 v 3.175 m 0,-3.175 h 6.35 m 0,0 v 3.175 m 0,0 h 6.35 m 0,-3.175 v 3.175 m 0,-3.175 h 6.35 m 0,0 v 3.175 m 0,0 h 6.35 m 0,-3.175 v 3.175 m 0,-3.175 h 6.35 m 0,0 v 3.175 m 0,0 h 6.35 m 0,-3.175 v 3.175 m 0,-3.175 h 6.35 m 0,0 v 3.175 m 0,0 h 6.35 m 0,-3.175 v 3.175 m 0,-3.175 h 6.35 m 0,0 v 3.175 m 0,0 h 6.35 m 0,-3.175 v 3.175 m 0,-3.175 h 6.35 m 0,0 v 3.175 m 0,0 h 6.35 m 0,-3.175 v 3.175 m 0,-3.175 h 6.35 m 0,0 v 3.175 m 0,0 h 6.35 m 0,-3.175 v 3.175 m 0,-3.175 h 6.35 m 0,0 v 3.175 m 0,0 h 6.35 m 0,-3.175 v 3.175 m 0,-3.175 h 6.35 m 0,0 v 3.175 m 0,0 h 6.35 m 0,-3.175 v 3.175 m 0,-3.175 h 6.35 m 0,0 v 3.175 m 5.5413,-87.14998 h 0.4999 m -0.4999,-3.5 a 1.7500001,1.7500001 0 0 0 0,3.5 m 0,-3.5 h 0.4999 m 0,3.5 a 1.7500001,1.7500001 0 0 0 0,-3.5 m -0.4999,66.99999 h 0.4999 m -0.4999,-3.49998 a 1.7500001,1.7500001 0 0 0 0,3.49998 m 0,-3.49998 h 0.4999 m 0,3.49998 a 1.7500001,1.7500001 0 0 0 0,-3.49998 m -114.0662,-2.49442 h 6.5 m -6.5,-3.49999 a 1.7500005,1.7500005 0 0 0 0,3.49999 m 0,-3.49999 h 6.5 m 0,3.49999 a 1.7500005,1.7500005 0 0 0 0,-3.49999 m 31.6001,3.49999 h 6.5 m -6.5,-3.49999 a 1.7500005,1.7500005 0 0 0 0,3.49999 m 0,-3.49999 h 6.5 m 0,3.49999 a 1.7500005,1.7500005 0 0 0 0,-3.49999 m -12.85,-44.5822 h 6.5 m -6.5,-3.5 a 1.7500001,1.7500001 0 0 0 0,3.5 m 0,-3.5 h 6.5 m 0,3.5 a 1.7500001,1.7500001 0 0 0 0,-3.5 m 31.6,3.5 h 6.5 m -6.5,-3.5 a 1.7500001,1.7500001 0 0 0 0,3.5 m 0,-3.5 h 6.5 m 0,3.5 a 1.7500001,1.7500001 0 0 0 0,-3.5 m 30.3287,-20.3734 a 1.8288,1.8288 0 1 0 -3.6576,0 1.8288,1.8288 0 1 0 3.6576,0 z m -146.05,88.89998 a 1.8288,1.8288 0 1 0 -3.6576,0 1.8288,1.8288 0 1 0 3.6576,0 z m 0,-88.89998 a 1.8288,1.8288 0 1 0 -3.6576,0 1.8288,1.8288 0 1 0 3.6576,0 z m 146.05,88.89998 a 1.8288,1.8288 0 1 0 -3.6576,0 1.8288,1.8288 0 1 0 3.6576,0 z"
       inkscape:connector-curvature="0" />
    <path
       inkscape:connector-curvature="0"
       d="m 177.00354,41.019134 a 2.8956,2.8956 0 1 0 -5.7912,0 2.8956,2.8956 0 1 0 5.7912,0 z"
       style="fill:none;stroke:#000000;stroke-width:0.15875;stroke-linecap:round"
       id="path2985" />
    <path
       inkscape:connector-curvature="0"
       d="m 169.15494,61.339134 a 8.128,8.128 0 1 0 -16.256,0 8.128,8.128 0 1 0 16.256,0 z"
       style="fill:none;stroke:#000000;stroke-width:0.15875;stroke-linecap:round"
       id="path3043" />
    <path
       inkscape:connector-curvature="0"
       d="m 195.31694,61.339134 a 8.128,8.128 0 1 0 -16.256,0 8.128,8.128 0 1 0 16.256,0 z"
       style="fill:none;stroke:#000000;stroke-width:0.15875;stroke-linecap:round"
       id="path3045" />
    <path
       inkscape:connector-curvature="0"
       id="path3061"
       style="fill:none;stroke:#000000;stroke-width:0.15875;stroke-linecap:round"
       d="m 228.08294,67.689134 h 3.175 m -111.125,-6.35 v 6.35 m 107.95,-44.449999 h -107.95 m 0,12.7 v 6.349999 m -3.175,6.35 h 3.175 m 0,0 v 6.35 m -3.175,0 v 6.35 m 0,6.35 v 6.35 m 111.125,-6.35 v -6.35 m 3.175,6.35 v 6.35 m 0,-12.7 h -3.175 m 3.175,-6.35 v 6.35 m -3.175,-6.35 h 3.175 m -3.175,0 v -6.35 m 3.175,0 h -3.175 m 3.175,-6.35 v 6.35 m -3.175,-6.35 h 3.175 m -3.175,0 v -6.349999 m 3.175,0 h -3.175 m 3.175,-6.350001 v 6.350001 m -3.175,-6.350001 h 3.175 m -3.175,0 v -6.349999 m -107.95,44.449999 h -3.175 m 3.175,-44.449999 v 6.349999 m 0,0 h -3.175 m 0,0 v 6.350001 m 0,0 h 3.175 m 0,6.349999 h -3.175 m 0,0 v 6.35 m 3.175,6.35 h -3.175 m 0,6.35 h 3.175 m -3.175,12.7 h 114.3" />
    <g
       id="g4093">
      <path
         id="path4083"
         d="m 275.34036,126.26713 a 10.477503,10.477503 0 1 0 -20.955,0 10.477503,10.477503 0 1 0 20.955,0 z"
         style="fill:none;stroke:#000000;stroke-width:0.15875001;stroke-linecap:round" />
      <path
         id="path4081"
         d="m 224.54036,126.26713 a 10.4775,10.4775 0 1 0 -20.955,0 10.4775,10.4775 0 1 0 20.955,0 z"
         style="fill:none;stroke:#000000;stroke-width:0.15875001;stroke-linecap:round" />
      <path
         d="m 287.08786,177.06713 v 3.175 m -6.35,-3.175 h 6.35 m -6.35,0 v 3.175 m -6.35,0 h 6.35 m -6.35,-3.175 v 3.175 m -6.35,-3.175 h 6.35 m -6.35,0 v 3.175 m -6.35,0 h 6.35 m -6.35,-3.175 v 3.175 m -6.35,-3.175 h 6.35 m -6.35,0 v 3.175 m -6.35,0 h 6.35 m -6.35,-3.175 v 3.175 m -6.35,-3.175 h 6.35 m -6.35,0 v 3.175 m -6.35,0 h 6.35 m -6.35,-3.175 v 3.175 m -6.35,-3.175 h 6.35 m -6.35,0 v 3.175 m -6.35,0 h 6.35 m -6.35,-3.175 v 3.175 m -6.35,-3.175 h 6.35 m -6.35,0 v 3.175 m -6.35,0 h 6.35 m -6.35,-3.175 v 3.175 m -6.35,-3.175 h 6.35 m -6.35,0 v 3.175 m -6.35,0 h 6.35 m -6.35,-3.175 v 3.175 m -6.35,-3.175 h 6.35 m -6.35,0 v 3.175 m -9.525,0 h 9.525 m -9.525,-3.175 v 3.175 m 3.175,-3.175 h -3.175 m 3.175,-6.35 v 6.35 m 0,-6.35 h -3.175 m 0,-6.35 v 6.35 m 3.175,-6.35 h -3.175 m 3.175,-6.35 v 6.35 m 0,-6.35 h -3.175 m 0,-6.35 v 6.35 m 3.175,-6.35 h -3.175 m 3.175,-6.35 v 6.35 m 0,-6.35 h -3.175 m 0,-6.35 v 6.35 m 3.175,-6.35 h -3.175 m 3.175,-6.35 v 6.35 m 0,-6.35 h -3.175 m 0,-6.35 v 6.35 m 3.175,-6.35 h -3.175 m 3.175,-6.35 v 6.35 m 0,-6.35 h -3.175 m 0,-6.35 v 6.35 m 3.175,-6.35 h -3.175 m 3.175,-6.35 v 6.35 m 0,-6.35 h -3.175 m 0,-6.35 v 6.35 m 3.175,-6.35 h -3.175 m 3.175,-6.35 v 6.35 m 0,-6.35 h -3.175 m 0,-6.35 v 6.35 m 3.175,-6.35 h -3.175 m 3.175,-6.35 v 6.35 m 0,-6.35 h -3.175 m 0,-4.9276 v 4.9276 m 114.3,-4.9276 h -114.3 m 114.3,0 v 4.9276 m -3.175,0 h 3.175 m -3.175,6.35 v -6.35 m 0,6.35 h 3.175 m 0,0 v 6.35 m -3.175,0 h 3.175 m -3.175,6.35 v -6.35 m 0,6.35 h 3.175 m 0,0 v 6.35 m -3.175,0 h 3.175 m -3.175,6.35 v -6.35 m 0,6.35 h 3.175 m 0,0 v 6.35 m -3.175,0 h 3.175 m -3.175,6.35 v -6.35 m 0,6.35 h 3.175 m 0,0 v 6.35 m -3.175,0 h 3.175 m -3.175,6.35 v -6.35 m 0,6.35 h 3.175 m 0,0 v 6.35 m -3.175,0 h 3.175 m -3.175,6.35 v -6.35 m 0,6.35 h 3.175 m 0,0 v 6.35 m -3.175,0 h 3.175 m -3.175,6.35 v -6.35 m 0,6.35 h 3.175 m 0,0 v 6.35 m -3.175,0 h 3.175 m -3.175,6.35 v -6.35 m 3.175,6.35 h -3.175 m 3.175,3.175 v -3.175 m -9.525,3.175 h 9.525"
         style="fill:none;stroke:#000000;stroke-width:0.15875001;stroke-linecap:round"
         id="path3881" />
      <path
         d="m 269.46286,82.62593 v -0.5 m 0,0.5 a 1.7500071,1.7500071 0 0 0 3.5,0 m 0,0 v -0.5 m 0,0 a 1.7500071,1.7500071 0 0 0 -3.5,0"
         style="fill:none;stroke:#000000;stroke-width:0.15875001;stroke-linecap:round"
         id="path3873" />
      <path
         d="m 205.96286,82.62593 v -0.5 m 0,0.5 a 1.7500005,1.7500005 0 0 0 3.5,0 m 0,0 v -0.5 m 0,0 a 1.7500005,1.7500005 0 0 0 -3.5,0"
         style="fill:none;stroke:#000000;stroke-width:0.15875001;stroke-linecap:round"
         id="path3305" />
    </g>
    <path
       id="path3517"
       style="fill:none;stroke:#000000;stroke-width:0.15875001;stroke-linecap:round"
       d="m 168.27496,293.82498 h 11.176 m 0,0 a 1.524,1.524 0 0 0 1.524,-1.524 m 0,0 v -61.01594 m 0,0 a 2.54,2.54 0 0 0 -0.635,-1.68005 m 0,0 -3.5651,-4.04248 m 0,0 2.3813,-2.10007 m 0,0 -4.2002,-4.7625 m -2.3812,2.10007 2.3812,-2.10007 m -2.3812,2.10007 -4.2002,-4.7625 m 0,0 2.3813,-2.10007 m 0,0 -4.2001,-4.7625 m -2.3813,2.10007 2.3813,-2.10007 m -2.3813,2.10007 -4.20011,-4.76251 m 0,0 2.38121,-2.10006 m 0,0 -4.20009,-4.7625 m -2.38125,2.10007 2.38125,-2.10007 m -2.38125,2.10007 -4.20013,-4.7625 m 0,0 2.38125,-2.10007 m 0,0 -4.20013,-4.7625 m 0,0 h -2.01095 m -0.3703,2.10007 0.3703,-2.10007 m -0.3703,2.10007 H 4.699 m 0,0 a 1.524,1.524 0 0 0 -1.524,1.524 m 0,-1e-5 v 4.82601 m 0,0 H 0 m 0,0 v 6.35 m 3.175,0 H 0 m 3.175,0 v 6.35 m 0,0 H 0 m 0,0 v 6.35 m 3.175,0 H 0 m 3.175,0 v 6.35 m 0,0 H 0 m 0,0 v 6.35 m 3.175,0 H 0 m 3.175,0 v 6.35 m 0,0 H 0 m 0,0 v 6.35 m 3.175,0 H 0 m 3.175,0 v 6.35 m 0,0 H 0 m 0,0 v 6.35 m 3.175,0 H 0 m 3.175,0 v 6.35 m 0,0 H 0 m 0,0 v 6.34998 m 3.175,0 H 0 m 3.175,0 v 6.35 m 0,0 H 0 m 0,0 v 6.35 m 3.175,0 H 0 m 3.175,0 v 6.34999 m 0,0 H 0 m 0,0 v 6.35 m 0,0 h 9.525 m 0,0 v 3.175 m 6.35,0 h -6.35 m 6.35,-3.175 v 3.175 m 0,-3.175 h 6.35 m 0,0 v 3.175 m 6.35,0 h -6.35 m 6.35,-3.175 v 3.175 m 0,-3.175 h 6.35 m 0,0 v 3.175 m 6.35,0 h -6.35 m 6.35,-3.175 v 3.175 m 0,-3.175 h 6.35 m 0,0 v 3.175 m 6.35,0 h -6.35 m 6.35,-3.175 v 3.175 m 0,-3.175 h 6.35 m 0,0 v 3.175 m 6.35,0 h -6.35 m 6.35,-3.175 v 3.175 m 0,-3.175 h 6.35 m 0,0 v 3.175 m 6.35,0 h -6.35 m 6.35,-3.175 v 3.175 m 0,-3.175 h 6.35 m 0,0 v 3.175 m 6.35,0 h -6.35 m 6.35,-3.175 v 3.175 m 0,-3.175 h 6.35 m 0,0 v 3.175 m 6.35,0 h -6.35 m 6.35,-3.175 v 3.175 m 0,-3.175 h 6.35 m 0,0 v 3.175 m 6.35,0 h -6.35 m 6.35,-3.175 v 3.175 m 0,-3.175 h 6.35 m 0,0 v 3.175 m 6.35,0 h -6.35 m 6.35,-3.175 v 3.175 m 0,-3.175 h 6.35 m 0,0 v 3.175 m 6.35,0 h -6.35 m 6.35,-3.175 v 3.175 m 0,-3.175 h 6.35 m 0,0 v 3.175 m 6.35001,0 H 149.225 m 6.35001,-3.175 v 3.175 m 0,-3.175 h 6.34995 m 0,0 v 3.175 m 6.35,0 h -6.35 m 6.35,-3.175 v 3.175"
       inkscape:connector-curvature="0" />
    <path
       id="path3729"
       style="fill:none;stroke:#000000;stroke-width:0.15875001;stroke-linecap:round"
       d="m 3.1749996,185.35567 v -4.826 M 180.97495,147.81964 V 86.80367 m 0,0 a 1.524,1.524 0 0 0 -1.524,-1.524 m -11.176,0 h 11.176 m -11.176,0 v -3.175 m 0,0 h -6.35 m 0,3.175 v -3.175 m -6.34996,3.175 h 6.34996 m -6.34996,0 v -3.175 m 0,0 h -6.35 m 0,3.175 v -3.175 m -6.35,3.175 h 6.35 m -6.35,0 v -3.175 m 0,0 h -6.35 m 0,3.175 v -3.175 m -6.35,3.175 h 6.35 m -6.35,0 v -3.175 m 0,0 h -6.35 m 0,3.175 v -3.175 m -6.35,3.175 h 6.35 m -6.35,0 v -3.175 m 0,0 h -6.35 m 0,3.175 v -3.175 m -6.34999,3.175 h 6.34999 m -6.34999,0 v -3.175 m 0,0 h -6.350001 m 0,3.175 v -3.175 m -6.35,3.175 h 6.35 m -6.35,0 v -3.175 m 0,0 h -6.35 m 0,3.175 v -3.175 m -6.35,3.175 h 6.35 m -6.35,0 v -3.175 m 0,0 h -6.35 m 0,3.175 v -3.175 m -6.35,3.175 h 6.35 m -6.35,0 v -3.175 m 0,0 h -6.35 m 0,3.175 v -3.175 m -6.35,3.175 h 6.35 m -6.35,0 v -3.175 m 0,0 h -6.35 m 0,3.175 v -3.175 m -6.35,3.175 h 6.35 m -6.35,0 v -3.175 m 0,0 h -6.35 m 0,3.175 v -3.175 m -6.35,3.175 h 6.35 m -6.35,0 v -3.175 m 0,0 h -6.35 m 0,3.175 v -3.175 m -6.35,3.175 h 6.35 m -6.35,0 v -3.175 m 0,0 H 9.5249996 m 0,3.175 v -3.175 M 0,85.27967 H 9.5249996 M 0,91.62967 v -6.35 m 3.1749996,6.35 H 0 m 3.1749996,6.35 v -6.35 m 0,6.35 H 0 m 0,6.35 v -6.35 m 3.1749996,6.35 H 0 m 3.1749996,6.35 v -6.35 m 0,6.35 H 0 m 0,6.35 v -6.35 m 3.1749996,6.35 H 0 m 3.1749996,6.35 v -6.35 m 0,6.35 H 0 m 0,6.35 v -6.35 m 3.1749996,6.35 H 0 m 3.1749996,6.35 v -6.35 m 0,6.35 H 0 m 0,6.35 v -6.35 m 3.1749996,6.35 H 0 m 3.1749996,6.35 v -6.35 m 0,6.35 H 0 m 0,6.35 v -6.35 m 3.1749996,6.35 H 0 m 3.1749996,6.35 v -6.35 m 0,6.35 H 0 m 0,6.35 v -6.35 m 3.1749996,6.35 H 0 m 3.1749996,6.35 v -6.35 m 0,6.35 H 0 m 0,6.35 v -6.35 m 3.1749996,6.35 H 0 m 3.1749996,4.826 a 1.524,1.524 0 0 0 1.5240001,1.524 m 142.6749503,0 H 4.6989997 m 142.6749503,0 0.3703,2.10006 m 2.01095,0 h -2.01095 m 6.21108,-4.7625 -4.20013,4.7625 m 1.81888,-6.86256 2.38125,2.10006 m 1.81888,-6.86256 -4.20013,4.7625 m 4.20013,-4.7625 2.38125,2.10006 m 4.20009,-4.7625 -4.20009,4.7625 m 1.81888,-6.86256 2.38121,2.10006 m 1.8189,-6.86256 -4.20011,4.7625 m 4.20011,-4.7625 2.3813,2.10006 m 4.2001,-4.7625 -4.2001,4.7625 m 1.8188,-6.86256 2.3813,2.10006 m 1.8189,-6.86256 -4.2002,4.7625 m 4.2002,-4.7625 2.3812,2.10006 m 4.2002,-4.7625 -4.2002,4.7625 m 1.8189,-6.86256 2.3813,2.10006 m 1.1838,-6.14254 -3.5651,4.04248 m 3.5651,-4.04248 a 2.54,2.54 0 0 0 0.635,-1.68005"
       inkscape:connector-curvature="0" />
    <g
       id="g1401"
       transform="matrix(0.26458333,0,0,0.26458333,-8.9958305,7.93749)">
      <path
         id="path3731"
         style="fill:none;stroke:#000000;stroke-width:0.60000002;stroke-linecap:round"
         d="m 1183.2493,539.21855 h 1.8898"
         inkscape:connector-curvature="0" />
      <path
         id="path3733"
         style="fill:none;stroke:#000000;stroke-width:0.60000002;stroke-linecap:round"
         d="m 1185.1391,539.21855 a 6.614175,6.614175 0 0 0 0,-13.22835"
         inkscape:connector-curvature="0" />
      <path
         id="path3735"
         style="fill:none;stroke:#000000;stroke-width:0.60000002;stroke-linecap:round"
         d="m 1183.2493,525.9902 h 1.8898"
         inkscape:connector-curvature="0" />
      <path
         id="path3737"
         style="fill:none;stroke:#000000;stroke-width:0.60000002;stroke-linecap:round"
         d="m 1183.2493,525.9902 a 6.614175,6.614175 0 0 0 0,13.22835"
         inkscape:connector-curvature="0" />
      <path
         d="M 1703.0742,652.60437 V 220.60438 m 0,0 h -539.616 m 0,0 v 431.99999 m 0,0 h 539.616"
         style="fill:none;stroke:#000000;stroke-width:0.60000002;stroke-linecap:round"
         id="path3745"
         inkscape:connector-curvature="0" />
      <path
         id="path3747"
         style="fill:none;stroke:#000000;stroke-width:0.60000002;stroke-linecap:round"
         d="m 1183.2493,347.21855 h 1.8898"
         inkscape:connector-curvature="0" />
      <path
         id="path3749"
         style="fill:none;stroke:#000000;stroke-width:0.60000002;stroke-linecap:round"
         d="m 1185.1391,347.21855 a 6.614175,6.614175 0 0 0 0,-13.22835"
         inkscape:connector-curvature="0" />
      <path
         id="path3751"
         style="fill:none;stroke:#000000;stroke-width:0.60000002;stroke-linecap:round"
         d="m 1183.2493,333.99021 h 1.8898"
         inkscape:connector-curvature="0" />
      <path
         id="path3753"
         style="fill:none;stroke:#000000;stroke-width:0.60000002;stroke-linecap:round"
         d="m 1183.2493,333.9902 a 6.614175,6.614175 0 0 0 0,13.22835"
         inkscape:connector-curvature="0" />
    </g>
    <g
       id="g2683"
       transform="matrix(0.26458333,0,0,0.26458333,-267.84248,41.27499)">
      <path
         id="path3063"
         style="fill:none;stroke:#000000;stroke-width:0.60000002;stroke-linecap:round"
         d="m 1138.9322,124.47895 v 1.88976"
         inkscape:connector-curvature="0" />
      <path
         id="path3065"
         style="fill:none;stroke:#000000;stroke-width:0.60000002;stroke-linecap:round"
         d="m 1138.9322,124.47895 a 6.614175,6.614175 0 0 0 -13.2283,0"
         inkscape:connector-curvature="0" />
      <path
         id="path3067"
         style="fill:none;stroke:#000000;stroke-width:0.60000002;stroke-linecap:round"
         d="m 1125.7039,124.47895 v 1.88976"
         inkscape:connector-curvature="0" />
      <path
         id="path3069"
         style="fill:none;stroke:#000000;stroke-width:0.60000002;stroke-linecap:round"
         d="m 1125.7039,126.36871 a 6.614175,6.614175 0 0 0 13.2283,0"
         inkscape:connector-curvature="0" />
      <path
         d="m 1444.3181,146.15983 v -234.624 m 0,0 h -432 m 0,0 v 234.624 m 0,0 h 432"
         style="fill:none;stroke:#000000;stroke-width:0.60000002;stroke-linecap:round"
         id="path3077"
         inkscape:connector-curvature="0" />
      <path
         id="path3079"
         style="fill:none;stroke:#000000;stroke-width:0.60000002;stroke-linecap:round"
         d="m 1330.9322,124.47895 a 6.614175,6.614175 0 0 0 -13.2283,0"
         inkscape:connector-curvature="0" />
      <path
         id="path3081"
         style="fill:none;stroke:#000000;stroke-width:0.60000002;stroke-linecap:round"
         d="m 1317.7039,124.47895 v 1.88976"
         inkscape:connector-curvature="0" />
      <path
         id="path3083"
         style="fill:none;stroke:#000000;stroke-width:0.60000002;stroke-linecap:round"
         d="m 1317.7039,126.36871 a 6.614175,6.614175 0 0 0 13.2283,0"
         inkscape:connector-curvature="0" />
      <path
         id="path3085"
         style="fill:none;stroke:#000000;stroke-width:0.60000002;stroke-linecap:round"
         d="m 1330.9322,124.47895 v 1.88976"
         inkscape:connector-curvature="0" />
    </g>
  </g>
</svg>
