<?xml version="1.0" encoding="UTF-8" standalone="no"?>
<svg
   xmlns:dc="http://purl.org/dc/elements/1.1/"
   xmlns:cc="http://creativecommons.org/ns#"
   xmlns:rdf="http://www.w3.org/1999/02/22-rdf-syntax-ns#"
   xmlns:svg="http://www.w3.org/2000/svg"
   xmlns="http://www.w3.org/2000/svg"
   xmlns:sodipodi="http://sodipodi.sourceforge.net/DTD/sodipodi-0.dtd"
   xmlns:inkscape="http://www.inkscape.org/namespaces/inkscape"
   width="1220mm"
   height="610mm"
   version="1.1"
   id="svg1983"
   sodipodi:docname="enc.svg"
   inkscape:version="0.92.3 (2405546, 2018-03-11)">
  <metadata
     id="metadata1987">
    <rdf:RDF>
      <cc:Work
         rdf:about="">
        <dc:format>image/svg+xml</dc:format>
        <dc:type
           rdf:resource="http://purl.org/dc/dcmitype/StillImage" />
        <dc:title />
      </cc:Work>
    </rdf:RDF>
  </metadata>
  <sodipodi:namedview
     pagecolor="#ffffff"
     bordercolor="#666666"
     borderopacity="1"
     objecttolerance="10"
     gridtolerance="10"
     guidetolerance="10"
     inkscape:pageopacity="0"
     inkscape:pageshadow="2"
     inkscape:window-width="1600"
     inkscape:window-height="832"
     id="namedview1985"
     showgrid="false"
     inkscape:document-units="mm"
     units="mm"
     inkscape:zoom="0.55052586"
     inkscape:cx="849.9683"
     inkscape:cy="685.91534"
     inkscape:window-x="0"
     inkscape:window-y="0"
     inkscape:window-maximized="1"
     inkscape:current-layer="g1981"
     showguides="false" />
  <desc
     id="desc839">/home/torsten/projects/Exceptionally-Useless-Box/Laser Cutting Files/Enclosure Laser Cut Layout.DXF - scale = 1.000000, origin = (0.000000, 0.000000), method = manual</desc>
  <defs
     id="defs867">
    <marker
       id="DistanceX"
       orient="auto"
       refX="0"
       refY="0"
       style="overflow:visible">
      <path
         d="M 3,-3 -3,3 M 0,-5 V 5"
         style="stroke:#000000;stroke-width:0.5"
         id="path841"
         inkscape:connector-curvature="0" />
    </marker>
    <pattern
       height="8"
       id="Hatch"
       patternUnits="userSpaceOnUse"
       width="8"
       x="0"
       y="0">
      <path
         d="M8 4 l-4,4"
         linecap="square"
         stroke="#000000"
         stroke-width="0.25"
         id="path844" />
      <path
         d="M6 2 l-4,4"
         linecap="square"
         stroke="#000000"
         stroke-width="0.25"
         id="path846" />
      <path
         d="M4 0 l-4,4"
         linecap="square"
         stroke="#000000"
         stroke-width="0.25"
         id="path848" />
    </pattern>
    <symbol
       id="*Model_Space" />
    <symbol
       id="*Paper_Space" />
    <symbol
       id="*Paper_Space0" />
    <symbol
       id="SW_NOTE_0">
      <text
         style="font-size:0.5px;line-height:125%;font-family:Arial;fill:#000000"
         x="0"
         y="1121.9106"
         id="text856">
        <tspan
           sodipodi:role="line"
           id="tspan854"
           x="0"
           y="1121.9106">NOTE: FINGER JOINTS ARE SIZED FOR 1/8TH INCH</tspan>
      </text>
      <text
         style="font-size:0.5px;line-height:125%;font-family:Arial;fill:#000000"
         x="0"
         y="1122.5319"
         id="text860">
        <tspan
           sodipodi:role="line"
           id="tspan858"
           x="0"
           y="1122.5319">MATERIALS FOR A TRANSITIONAL FIT. ADHESIVE</tspan>
      </text>
      <text
         style="font-size:0.5px;line-height:125%;font-family:Arial;fill:#000000"
         x="0"
         y="1123.1532"
         id="text864">
        <tspan
           sodipodi:role="line"
           id="tspan862"
           x="0"
           y="1123.1532">WILL BE NECESSARY TO COMPLETE THE JOINT.</tspan>
      </text>
    </symbol>
    <marker
       style="overflow:visible"
       refY="0.0"
       refX="0.0"
       orient="auto"
       id="DistanceX-2">
      <path
         id="path2615"
         style="stroke:#000000; stroke-width:0.5"
         d="M 3,-3 L -3,3 M 0,-5 L  0,5" />
    </marker>
    <pattern
       y="0"
       x="0"
       width="8"
       patternUnits="userSpaceOnUse"
       id="Hatch-8"
       height="8">
      <path
         id="path2618"
         stroke-width="0.25"
         stroke="#000000"
         linecap="square"
         d="M8 4 l-4,4" />
      <path
         id="path2620"
         stroke-width="0.25"
         stroke="#000000"
         linecap="square"
         d="M6 2 l-4,4" />
      <path
         id="path2622"
         stroke-width="0.25"
         stroke="#000000"
         linecap="square"
         d="M4 0 l-4,4" />
    </pattern>
    <symbol
       id="*Model_Space-9" />
    <symbol
       id="*Paper_Space-6" />
    <symbol
       id="*Paper_Space0-0" />
    <symbol
       id="SW_NOTE_0-7">
      <text
         id="text2630"
         y="1107.050872"
         x="0.000000"
         style="font-size: 12.0px; fill: #000000; font-family: Arial">
        <tspan
           id="tspan2628"
           sodipodi:role="line">NOTE: FINGER JOINTS ARE SIZED FOR 1/8TH INCH</tspan>
      </text>
      <text
         id="text2634"
         y="1122.830399"
         x="0.000000"
         style="font-size: 12.0px; fill: #000000; font-family: Arial">
        <tspan
           id="tspan2632"
           sodipodi:role="line">MATERIALS FOR A TRANSITIONAL FIT. ADHESIVE</tspan>
      </text>
      <text
         id="text2638"
         y="1138.609926"
         x="0.000000"
         style="font-size: 12.0px; fill: #000000; font-family: Arial">
        <tspan
           id="tspan2636"
           sodipodi:role="line">WILL BE NECESSARY TO COMPLETE THE JOINT.</tspan>
      </text>
    </symbol>
  </defs>
  <g
     inkscape:groupmode="layer"
     inkscape:label="0"
     id="g1981"
     transform="translate(0,1182.9921)">
    <path
       id="path2983"
       style="fill:none;stroke:#000000;stroke-width:0.60000002;stroke-linecap:round"
       d="m 1280.7338,1022.4774 a 6.4252,6.4252 0 1 0 -12.8504,0 6.4252,6.4252 0 1 0 12.8504,0 z m 0,-47.99995 a 6.4252,6.4252 0 1 0 -12.8504,0 6.4252,6.4252 0 1 0 12.8504,0 z m 46.2893,148.04215 h 42.624 m 0,0 V 690.51965 m -42.624,0 h 42.624 m -42.624,12 v -12 m 0,12 h -24 m 0,0 v -12 m -24,0 h 24 m -24,12 v -12 m 0,12 h -24 m 0,0 v -12 m -24,0 h 24 m -24,12 v -12 m 0,12 h -24 m 0,0 v -12 m -24,0 h 24 m -24,12 v -12 m 0,12 h -24 m 0,0 v -12 m -24,0 h 24 m -24,12 v -12 m 0,12 h -24 m 0,0 v -12 m -24,0 h 24 m -24,12 v -12 m 0,12 h -24 m 0,0 v -12 m -24,0 h 24 m -24,12 v -12 m 0,12 h -24 m 0,0 v -12 m -24,0 h 24 m -24,12 v -12 m 0,12 h -23.99996 m 0,0 v -12 m -24,0 h 24 m -24,12 v -12 m 0,12 h -24 m 0,0 v -12 m -24,0 h 24 m -24,12 v -12 m 0,12 h -24 m 0,0 v -12 m -24,0 h 24 m -24,12 v -12 m 0,12 h -24 m 0,0 v -12 m -24,0 h 24 m -24,12 v -12 m 0,12 h -24 m 0,0 v -12 m -24,0 h 24 m -24,12 v -12 m 0,12 h -24 m 0,0 v -12 m -24,0 h 24 m -24,0 v 36 m 0,0 h -12 m 0,24 v -24 m 12,24 h -12 m 12,0 v 24 m 0,0 h -12 m 0,24 v -24 m 12,24 h -12 m 12,0 v 24 m 0,0 h -12 m 0,24 v -24 m 12,24 h -12 m 12,0 v 24 m 0,0 h -12 m 0,24 v -24 m 12,24 h -12 m 12,0 v 24 m 0,0 h -12 m 0,24 v -24 m 12,24 h -12 m 12,0 v 24 m 0,0 h -12 m 0,24 v -24 m 12,24 h -12 m 12,0 v 23.99995 m 0,0 h -12 m 0,24 v -24 m 12,24 h -12 m 12,0 v 24 m 0,0 h -12 m 0,24 v -24 m 12,24 h -12 m 12,0 v 36 m 0,0 h 24 m 0,-12 v 12 m 0,-12 h 24 m 0,0 v 12 m 0,0 h 24 m 0,-12 v 12 m 0,-12 h 24 m 0,0 v 12 m 0,0 h 24 m 0,-12 v 12 m 0,-12 h 24 m 0,0 v 12 m 0,0 h 24 m 0,-12 v 12 m 0,-12 h 24 m 0,0 v 12 m 0,0 h 24 m 0,-12 v 12 m 0,-12 h 24 m 0,0 v 12 m 0,0 h 24 m 0,-12 v 12 m 0,-12 h 23.99996 m 0,0 v 12 m 0,0 h 24 m 0,-12 v 12 m 0,-12 h 24 m 0,0 v 12 m 0,0 h 24 m 0,-12 v 12 m 0,-12 h 24 m 0,0 v 12 m 0,0 h 24 m 0,-12 v 12 m 0,-12 h 24 m 0,0 v 12 m 0,0 h 24 m 0,-12 v 12 m 0,-12 h 24 m 0,0 v 12 m 0,0 h 24 m 0,-12 v 12 m 0,-12 h 24 m 0,0 v 12 m 0,0 h 24 m 0,-12 v 12 m 0,-12 h 24 m 0,0 v 12 m 0,0 h 24 m 0,-12 v 12 m 0,-12 h 24 m 0,0 v 12 m 20.9432,-329.38578 h 1.8897 m -1.8897,-13.22834 a 6.6141735,6.6141735 0 0 0 0,13.22834 m 0,-13.22834 h 1.8897 m 0,13.22834 a 6.6141735,6.6141735 0 0 0 0,-13.22834 m -1.8897,253.22832 h 1.8897 m -1.8897,-13.2283 a 6.6141735,6.6141735 0 0 0 0,13.2283 m 0,-13.2283 h 1.8897 m 0,13.2283 a 6.6141735,6.6141735 0 0 0 0,-13.2283 m -431.11632,-9.4277 h 24.56693 m -24.56693,-13.22832 a 6.614175,6.614175 0 0 0 0,13.22832 m 0,-13.22832 h 24.56693 m 0,13.22832 a 6.614175,6.614175 0 0 0 0,-13.22832 m 119.43309,13.22832 h 24.5669 m -24.5669,-13.22832 a 6.614175,6.614175 0 0 0 0,13.22832 m 0,-13.22832 h 24.5669 m 0,13.22832 a 6.614175,6.614175 0 0 0 0,-13.22832 m -48.5669,-168.49966 h 24.5669 m -24.5669,-13.22834 a 6.6141735,6.6141735 0 0 0 0,13.22834 m 0,-13.22834 h 24.5669 m 0,13.22834 a 6.6141735,6.6141735 0 0 0 0,-13.22834 m 119.4331,13.22834 h 24.5669 m -24.5669,-13.22834 a 6.6141735,6.6141735 0 0 0 0,13.22834 m 0,-13.22834 h 24.5669 m 0,13.22834 a 6.6141735,6.6141735 0 0 0 0,-13.22834 m 114.6285,-77.00183 a 6.912,6.912 0 1 0 -13.824,0 6.912,6.912 0 1 0 13.824,0 z M 769.93514,1074.5196 a 6.912,6.912 0 1 0 -13.824,0 6.912,6.912 0 1 0 13.824,0 z m 0,-335.99995 a 6.912,6.912 0 1 0 -13.824,0 6.912,6.912 0 1 0 13.824,0 z m 551.99996,335.99995 a 6.912,6.912 0 1 0 -13.824,0 6.912,6.912 0 1 0 13.824,0 z"
       inkscape:connector-curvature="0" />
    <g
       id="g1411"
       transform="translate(-74,48)">
      <path
         id="path2985"
         style="fill:none;stroke:#000000;stroke-width:0.60000002;stroke-linecap:round"
         d="m 742.98978,107.03298 a 10.944,10.944 0 1 0 -21.888,0 10.944,10.944 0 1 0 21.888,0 z"
         inkscape:connector-curvature="0" />
      <path
         id="path3043"
         style="fill:none;stroke:#000000;stroke-width:0.60000002;stroke-linecap:round"
         d="m 713.32578,183.83298 a 30.72,30.72 0 1 0 -61.44,0 30.72,30.72 0 1 0 61.44,0 z"
         inkscape:connector-curvature="0" />
      <path
         id="path3045"
         style="fill:none;stroke:#000000;stroke-width:0.60000002;stroke-linecap:round"
         d="m 812.20578,183.83298 a 30.72,30.72 0 1 0 -61.44,0 30.72,30.72 0 1 0 61.44,0 z"
         inkscape:connector-curvature="0" />
      <path
         id="path3047"
         style="fill:none;stroke:#000000;stroke-width:0.60000002;stroke-linecap:round"
         d="m 815.76232,150.76212 a 3.401575,3.401575 0 1 0 -6.80315,0 3.401575,3.401575 0 1 0 6.80315,0 z"
         inkscape:connector-curvature="0" />
      <path
         id="path3049"
         style="fill:none;stroke:#000000;stroke-width:0.60000002;stroke-linecap:round"
         d="m 655.1324,216.90385 a 3.401575,3.401575 0 1 0 -6.80315,0 3.401575,3.401575 0 1 0 6.80315,0 z"
         inkscape:connector-curvature="0" />
      <path
         id="path3051"
         style="fill:none;stroke:#000000;stroke-width:0.60000002;stroke-linecap:round"
         d="m 655.1324,150.76212 a 3.401575,3.401575 0 1 0 -6.80315,0 3.401575,3.401575 0 1 0 6.80315,0 z"
         inkscape:connector-curvature="0" />
      <path
         id="path3053"
         style="fill:none;stroke:#000000;stroke-width:0.60000002;stroke-linecap:round"
         d="m 815.76232,216.90385 a 3.401575,3.401575 0 1 0 -6.80315,0 3.401575,3.401575 0 1 0 6.80315,0 z"
         inkscape:connector-curvature="0" />
      <path
         d="m 936.04579,207.83298 h 11.99999 m -420,-24 v 24 M 936.04579,39.832982 H 528.04578 m 0,48 v 23.999998 m -11.99999,24 h 11.99999 m 0,0 v 24 m -11.99999,0 v 24 m 0,24 v 24 m 420,-24 v -24 m 11.99999,24 v 24 m 0,-48 h -11.99999 m 11.99999,-24 v 24 m -11.99999,-24 h 11.99999 m -11.99999,0 v -24 m 11.99999,0 h -11.99999 m 11.99999,-24 v 24 m -11.99999,-24 h 11.99999 m -11.99999,0 V 87.832982 m 11.99999,0 H 936.04579 M 948.04578,63.83298 V 87.832982 M 936.04579,63.83298 h 11.99999 m -11.99999,0 V 39.832982 M 528.04578,207.83298 H 516.04579 M 528.04578,39.832982 V 63.83298 m 0,0 h -11.99999 m 0,0 v 24.000002 m 0,0 h 11.99999 m 0,23.999998 h -11.99999 m 0,0 v 24 m 11.99999,24 h -11.99999 m 0,24 h 11.99999 m -11.99999,48 h 431.99999"
         style="fill:none;stroke:#000000;stroke-width:0.60000002;stroke-linecap:round"
         id="path3061"
         inkscape:connector-curvature="0" />
    </g>
    <path
       id="path3305"
       style="fill:none;stroke:#000000;stroke-width:0.60000002;stroke-linecap:round"
       d="m 1040.6566,477.23015 a 39.6,39.6 0 1 0 -79.19999,0 39.6,39.6 0 1 0 79.19999,0 z m -191.99999,0 a 39.6,39.6 0 1 0 -79.2,0 39.6,39.6 0 1 0 79.2,0 z m 236.39999,204 h 36 m 0,0 v -12.00001 m 0,0 h -12 m 0,0 v -23.99999 m 0,0 h 12 m 0,-24 v 24 m -12,-24 h 12 m -12,0 v -24 m 0,0 h 12 m 0,-24 v 24 m -12,-24 h 12 m -12,0 v -24 m 0,0 h 12 m 0,-24 v 24 m -12,-24 h 12 m -12,0 v -24 m 0,0 h 12 m 0,-24 v 24 m -12,-24 h 12 m -12,0 v -24 m 0,0 h 12 m 0,-24 v 24 m -12,-24 h 12 m -12,0 v -24 m 0,0 h 12 m 0,-24 v 24 m -12,-24 h 12 m -12,0 v -24.00001 m 0,0 h 12 m 0,-23.99999 v 23.99999 m -12,-23.99999 h 12 m -12,0 v -24 m 0,0 h 12 m 0,-18.62401 v 18.62401 m 0,-18.62401 H 689.05662 m 0,0 v 18.62401 m 11.99999,0 h -11.99999 m 11.99999,0 v 24 m 0,0 h -11.99999 m 0,0 v 23.99999 m 11.99999,0 h -11.99999 m 11.99999,0 v 24.00001 m 0,0 h -11.99999 m 0,0 v 24 m 11.99999,0 h -11.99999 m 11.99999,0 v 24 m 0,0 h -11.99999 m 0,0 v 24 m 11.99999,0 h -11.99999 m 11.99999,0 v 24 m 0,0 h -11.99999 m 0,0 v 24 m 11.99999,0 h -11.99999 m 11.99999,0 v 24 m 0,0 h -11.99999 m 0,0 v 24 m 11.99999,0 h -11.99999 m 11.99999,0 v 24 m 0,0 h -11.99999 m 0,0 v 24 m 11.99999,0 h -11.99999 m 11.99999,0 v 24 m 0,0 h -11.99999 m 0,0 v 24 m 11.99999,0 h -11.99999 m 11.99999,0 v 23.99999 m 0,0 h -11.99999 m 0,0 v 12.00001 m 0,0 h 35.99999 m 0,-12.00001 v 12.00001 m 0,-12.00001 h 24.00001 m 0,0 v 12.00001 m 0,0 h 24 m 0,-12.00001 v 12.00001 m 0,-12.00001 h 23.99999 m 0,0 v 12.00001 m 0,0 h 24 m 0,-12.00001 v 12.00001 m 0,-12.00001 h 24 m 0,0 v 12.00001 m 0,0 h 24 m 0,-12.00001 v 12.00001 m 0,-12.00001 h 24 m 0,0 v 12.00001 m 0,0 h 24 m 0,-12.00001 v 12.00001 m 0,-12.00001 h 24 m 0,0 v 12.00001 m 0,0 h 24 m 0,-12.00001 v 12.00001 m 0,-12.00001 h 23.99999 m 0,0 v 12.00001 m 0,0 h 24 m 0,-12.00001 v 12.00001 m 0,-12.00001 h 24 m 0,0 v 12.00001 m 0,0 h 24 m 0,-12.00001 v 12.00001 m 0,-12.00001 h 24 m 0,0 v 12.00001 m -53.3858,-370.83289 a 6.6142,6.6142 0 0 0 -13.2284,0 m 13.2284,1.88977 v -1.88976 m -13.2284,1.88976 a 6.6142,6.6142 0 0 0 13.2284,0 m -13.2284,0 v -1.88976 m -226.77161,-10e-6 a 6.614175,6.614175 0 0 0 -13.22835,0 m 13.22835,1.88977 v -1.88976 m -13.22835,1.88976 a 6.614175,6.614175 0 0 0 13.22835,0 m -13.22836,0 v -1.88976"
       inkscape:connector-curvature="0" />
    <path
       id="path3517"
       style="fill:none;stroke:#000000;stroke-width:0.60000002;stroke-linecap:round"
       d="m 636,1110.5197 h 42.23999 m 10e-6,0 a 5.76,5.76 0 0 0 5.76,-5.76 m 0,0 V 874.14821 m 0,0 a 9.6,9.6 0 0 0 -2.4,-6.3498 m 0,0 -13.47451,-15.27866 m 0,0 9,-7.93725 m 0,0 -15.87451,-18 m -9,7.93725 9,-7.93725 m -9,7.93725 -15.87451,-18 m 0,0 9,-7.93726 m 0,0 -15.87451,-18 m -9,7.93726 9,-7.93726 m -9,7.93726 -15.87451,-18.00001 m 0,0 9,-7.93725 m 0,0 -15.87451,-17.99999 m -9,7.93726 9,-7.93726 m -9,7.93726 -15.8745,-18.00001 m 0,0 9,-7.93725 m 0,0 -15.87451,-18 m 0,0 h -7.60045 m -1.39955,7.93725 1.39955,-7.93725 m -1.39955,7.93725 H 17.759997 m -6e-6,0 a 5.76,5.76 0 0 0 -5.76,5.76 m 1e-6,-1e-5 v 18.24001 m 0,0 H 0 m 0,0 v 24 m 11.999992,0 H 0 m 11.999992,0 v 24 m 0,0 H 0 m 0,0 v 24 m 11.999992,0 H 0 m 11.999992,0 v 24 m 0,0 H 0 m 0,0 v 24 m 11.999992,0 H 0 m 11.999992,0 v 24 m 0,0 H 0 m 0,0 v 24 m 11.999992,0 H 0 m 11.999992,0 v 24 m 0,0 H 0 m 0,0 v 24 m 11.999992,0 H 0 m 11.999992,0 v 24 m 0,0 H 0 m 0,0 v 23.99995 m 11.999992,0 H 0 m 11.999992,0 v 24 m 0,0 H 0 m 0,0 v 24 m 11.999992,0 H 0 m 11.999992,0 v 24 m 0,0 H 0 m 0,0 v 24 m 0,0 h 36.000004 m 0,0 v 12 m 23.999984,0 H 36.000004 m 23.999984,-12 v 12 m 0,-12 h 24.000016 m 0,0 v 12 m 23.999986,0 H 84.000004 m 23.999986,-12 v 12 m 0,-12 H 132 m 0,0 v 12 m 24,0 h -24 m 24,-12 v 12 m 0,-12 h 24 m 0,0 v 12 m 23.99999,0 H 180 m 23.99999,-12 v 12 m 0,-12 h 24 m 0,0 v 12 m 24.00001,0 h -24.00001 m 24.00001,-12 v 12 m 0,-12 h 24 m 0,0 v 12 m 24,0 h -24 m 24,-12 v 12 m 0,-12 h 24 m 0,0 v 12 m 24,0 h -24 m 24,-12 v 12 m 0,-12 h 24 m 0,0 v 12 m 24,0 h -24 m 24,-12 v 12 m 0,-12 h 24 m 0,0 v 12 m 24,0 h -24 m 24,-12 v 12 m 0,-12 h 24 m 0,0 v 12 m 24,0 h -24 m 24,-12 v 12 m 0,-12 h 24 m 0,0 v 12 m 23.99999,0 H 516 m 23.99999,-12 v 12 m 0,-12 h 24 m 0,0 v 12 m 24.00002,0 h -24.00002 m 24.00002,-12 v 12 m 0,-12 h 23.99998 m 0,0 v 12 m 24.00001,0 h -24.00001 m 24.00001,-12 v 12"
       inkscape:connector-curvature="0" />
    <path
       id="path3729"
       style="fill:none;stroke:#000000;stroke-width:0.60000002;stroke-linecap:round"
       d="M 11.999992,700.5569 V 682.31689 M 683.99999,558.68843 V 328.07689 m 0,1e-5 a 5.76,5.76 0 0 0 -5.76,-5.76 m -42.23999,0 h 42.23999 m -42.23999,0 v -12.00001 m 0,0 h -24.00002 m 0,12.00001 V 310.31689 M 588,322.3169 h 23.99998 m -23.99998,0 v -12.00001 m 0,0 h -24.00001 m 0,12.00001 v -12.00001 m -24,12.00001 h 24 m -24,0 v -12.00001 m 0,0 h -24 m 0,12.00001 V 310.31689 M 492,322.3169 h 23.99999 m -23.99999,0 v -12.00001 m 0,0 h -24 m 0,12.00001 V 310.31689 M 443.99999,322.3169 H 468 m -24.00001,0 v -12.00001 m 0,0 h -24 m 0,12.00001 v -12.00001 m -24,12.00001 h 24 m -24,0 v -12.00001 m 0,0 h -24 m 0,12.00001 v -12.00001 m -24,12.00001 h 24 m -24,0 v -12.00001 m 0,0 h -24 m 0,12.00001 v -12.00001 m -24,12.00001 h 24 m -24,0 v -12.00001 m 0,0 h -24 m 0,12.00001 v -12.00001 m -24,12.00001 h 24 m -24,0 v -12.00001 m 0,0 h -24 m 0,12.00001 v -12.00001 m -24,12.00001 h 24 m -24,0 v -12.00001 m 0,0 h -24 m 0,12.00001 V 310.31689 M 156,322.3169 h 23.99999 m -23.99999,0 v -12.00001 m 0,0 h -24 m 0,12.00001 V 310.31689 M 107.99999,322.3169 H 132 m -24.00001,0 v -12.00001 m 0,0 H 83.999998 m 0,12.00001 v -12.00001 m -24.00001,12.00001 h 24.00001 m -24.00001,0 v -12.00001 m 0,0 H 36.000004 m 0,12.00001 V 310.31689 M 0,322.3169 H 36.000004 M 0,346.3169 v -24 m 11.999992,24 H 0 m 11.999992,23.99999 V 346.3169 m 0,23.99999 H 0 m 0,24 v -24 m 11.999992,24 H 0 m 11.999992,24.00001 v -24.00001 m 0,24.00001 H 0 m 0,23.99999 V 418.3169 m 11.999992,23.99999 H 0 m 11.999992,24.00001 v -24.00001 m 0,24.00001 H 0 m 0,24 v -24 m 11.999992,24 H 0 m 11.999992,24 v -24 m 0,24 H 0 m 0,23.99999 V 514.3169 m 11.999992,23.99999 H 0 m 11.999992,24 v -24 m 0,24 H 0 M 0,586.3169 V 562.31689 M 11.999992,586.3169 H 0 m 11.999992,23.99999 V 586.3169 m 0,23.99999 H 0 M 0,634.3169 V 610.31689 M 11.999992,634.3169 H 0 m 11.999992,24 v -24 m 0,24 H 0 m 0,23.99999 V 658.3169 m 11.999992,23.99999 H 0 m 11.999992,18.24001 a 5.76,5.76 0 0 0 5.76,5.76 m 539.243938,-1e-5 H 17.759997 m 539.243933,0 1.39955,7.93726 m 7.60045,0 h -7.60045 m 23.47496,-18.00001 -15.87451,18.00001 m 6.87451,-25.93726 9,7.93725 m 6.87449,-25.93725 -15.87449,18 m 15.87449,-18 9.00001,7.93725 m 15.8745,-17.99999 -15.8745,17.99999 m 6.8745,-25.93724 9,7.93725 m 6.87451,-25.93725 -15.87451,18 m 15.87451,-18 9,7.93725 m 15.87451,-18 -15.87451,18 m 6.87451,-25.93725 9,7.93725 m 6.87451,-25.93726 -15.87451,18.00001 m 15.87451,-18.00001 9,7.93726 m 15.87451,-18 -15.87451,18 m 6.87451,-25.93726 9,7.93726 M 681.6,565.03824 668.12548,580.31689 m 13.47451,-15.27865 a 9.6,9.6 0 0 0 2.4,-6.3498"
       inkscape:connector-curvature="0" />
    <g
       id="g1401"
       transform="translate(-34,30)">
      <path
         id="path3731"
         style="fill:none;stroke:#000000;stroke-width:0.60000002;stroke-linecap:round"
         d="m 1183.2493,539.21855 h 1.8898"
         inkscape:connector-curvature="0" />
      <path
         id="path3733"
         style="fill:none;stroke:#000000;stroke-width:0.60000002;stroke-linecap:round"
         d="m 1185.1391,539.21855 a 6.614175,6.614175 0 0 0 0,-13.22835"
         inkscape:connector-curvature="0" />
      <path
         id="path3735"
         style="fill:none;stroke:#000000;stroke-width:0.60000002;stroke-linecap:round"
         d="m 1183.2493,525.9902 h 1.8898"
         inkscape:connector-curvature="0" />
      <path
         id="path3737"
         style="fill:none;stroke:#000000;stroke-width:0.60000002;stroke-linecap:round"
         d="m 1183.2493,525.9902 a 6.614175,6.614175 0 0 0 0,13.22835"
         inkscape:connector-curvature="0" />
      <path
         d="M 1703.0742,652.60437 V 220.60438 m 0,0 h -539.616 m 0,0 v 431.99999 m 0,0 h 539.616"
         style="fill:none;stroke:#000000;stroke-width:0.60000002;stroke-linecap:round"
         id="path3745"
         inkscape:connector-curvature="0" />
      <path
         id="path3747"
         style="fill:none;stroke:#000000;stroke-width:0.60000002;stroke-linecap:round"
         d="m 1183.2493,347.21855 h 1.8898"
         inkscape:connector-curvature="0" />
      <path
         id="path3749"
         style="fill:none;stroke:#000000;stroke-width:0.60000002;stroke-linecap:round"
         d="m 1185.1391,347.21855 a 6.614175,6.614175 0 0 0 0,-13.22835"
         inkscape:connector-curvature="0" />
      <path
         id="path3751"
         style="fill:none;stroke:#000000;stroke-width:0.60000002;stroke-linecap:round"
         d="m 1183.2493,333.99021 h 1.8898"
         inkscape:connector-curvature="0" />
      <path
         id="path3753"
         style="fill:none;stroke:#000000;stroke-width:0.60000002;stroke-linecap:round"
         d="m 1183.2493,333.9902 a 6.614175,6.614175 0 0 0 0,13.22835"
         inkscape:connector-curvature="0" />
    </g>
    <g
       id="g2683"
       transform="translate(-1012.3181,156)">
      <path
         id="path3063"
         style="fill:none;stroke:#000000;stroke-width:0.60000002;stroke-linecap:round"
         d="m 1138.9322,124.47895 v 1.88976"
         inkscape:connector-curvature="0" />
      <path
         id="path3065"
         style="fill:none;stroke:#000000;stroke-width:0.60000002;stroke-linecap:round"
         d="m 1138.9322,124.47895 a 6.614175,6.614175 0 0 0 -13.2283,0"
         inkscape:connector-curvature="0" />
      <path
         id="path3067"
         style="fill:none;stroke:#000000;stroke-width:0.60000002;stroke-linecap:round"
         d="m 1125.7039,124.47895 v 1.88976"
         inkscape:connector-curvature="0" />
      <path
         id="path3069"
         style="fill:none;stroke:#000000;stroke-width:0.60000002;stroke-linecap:round"
         d="m 1125.7039,126.36871 a 6.614175,6.614175 0 0 0 13.2283,0"
         inkscape:connector-curvature="0" />
      <path
         d="m 1444.3181,146.15983 v -234.624 m 0,0 h -432 m 0,0 v 234.624 m 0,0 h 432"
         style="fill:none;stroke:#000000;stroke-width:0.60000002;stroke-linecap:round"
         id="path3077"
         inkscape:connector-curvature="0" />
      <path
         id="path3079"
         style="fill:none;stroke:#000000;stroke-width:0.60000002;stroke-linecap:round"
         d="m 1330.9322,124.47895 a 6.614175,6.614175 0 0 0 -13.2283,0"
         inkscape:connector-curvature="0" />
      <path
         id="path3081"
         style="fill:none;stroke:#000000;stroke-width:0.60000002;stroke-linecap:round"
         d="m 1317.7039,124.47895 v 1.88976"
         inkscape:connector-curvature="0" />
      <path
         id="path3083"
         style="fill:none;stroke:#000000;stroke-width:0.60000002;stroke-linecap:round"
         d="m 1317.7039,126.36871 a 6.614175,6.614175 0 0 0 13.2283,0"
         inkscape:connector-curvature="0" />
      <path
         id="path3085"
         style="fill:none;stroke:#000000;stroke-width:0.60000002;stroke-linecap:round"
         d="m 1330.9322,124.47895 v 1.88976"
         inkscape:connector-curvature="0" />
    </g>
  </g>
</svg>
