<?xml version="1.0" encoding="UTF-8" standalone="no"?>
<!-- Created with Inkscape (http://www.inkscape.org/) -->

<svg
   xmlns:dc="http://purl.org/dc/elements/1.1/"
   xmlns:cc="http://creativecommons.org/ns#"
   xmlns:rdf="http://www.w3.org/1999/02/22-rdf-syntax-ns#"
   xmlns:svg="http://www.w3.org/2000/svg"
   xmlns="http://www.w3.org/2000/svg"
   xmlns:sodipodi="http://sodipodi.sourceforge.net/DTD/sodipodi-0.dtd"
   xmlns:inkscape="http://www.inkscape.org/namespaces/inkscape"
   width="1220mm"
   height="610mm"
   viewBox="0 0 1220 610"
   version="1.1"
   id="svg896"
   inkscape:version="0.92.3 (2405546, 2018-03-11)"
   sodipodi:docname="enclosure.svg">
  <defs
     id="defs890" />
  <sodipodi:namedview
     id="base"
     pagecolor="#ffffff"
     bordercolor="#666666"
     borderopacity="1.0"
     inkscape:pageopacity="0.0"
     inkscape:pageshadow="2"
     inkscape:zoom="0.60724198"
     inkscape:cx="834.5371"
     inkscape:cy="527.49198"
     inkscape:document-units="mm"
     inkscape:current-layer="layer1"
     showgrid="false"
     inkscape:window-width="1600"
     inkscape:window-height="832"
     inkscape:window-x="0"
     inkscape:window-y="0"
     inkscape:window-maximized="1" />
  <metadata
     id="metadata893">
    <rdf:RDF>
      <cc:Work
         rdf:about="">
        <dc:format>image/svg+xml</dc:format>
        <dc:type
           rdf:resource="http://purl.org/dc/dcmitype/StillImage" />
        <dc:title></dc:title>
      </cc:Work>
    </rdf:RDF>
  </metadata>
  <g
     inkscape:label="Layer 1"
     inkscape:groupmode="layer"
     id="layer1"
     transform="translate(0,313)">
    <g
       id="g2471"
       transform="translate(-839.72824,548.79269)">
      <path
         inkscape:connector-curvature="0"
         d="m 1178.5891,-278.26222 a 1.7000008,1.7000008 0 1 0 -3.4,0 1.7000008,1.7000008 0 1 0 3.4,0 z m 0,-12.69999 a 1.7000008,1.7000008 0 1 0 -3.4,0 1.7000008,1.7000008 0 1 0 3.4,0 z m 12.2473,39.16948 h 11.2776 m 0,0 v -114.29998 m -11.2776,0 h 11.2776 m -11.2776,3.175 v -3.175 m 0,3.175 h -6.35 m 0,0 v -3.175 m -6.35,0 h 6.35 m -6.35,3.175 v -3.175 m 0,3.175 h -6.35 m 0,0 v -3.175 m -6.35,0 h 6.35 m -6.35,3.175 v -3.175 m 0,3.175 h -6.35 m 0,0 v -3.175 m -6.35,0 h 6.35 m -6.35,3.175 v -3.175 m 0,3.175 h -6.35 m 0,0 v -3.175 m -6.35,0 h 6.35 m -6.35,3.175 v -3.175 m 0,3.175 h -6.35 m 0,0 v -3.175 m -6.35,0 h 6.35 m -6.35,3.175 v -3.175 m 0,3.175 h -6.35 m 0,0 v -3.175 m -6.35,0 h 6.35 m -6.35,3.175 v -3.175 m 0,3.175 h -6.35 m 0,0 v -3.175 m -6.35,0 h 6.35 m -6.35,3.175 v -3.175 m 0,3.175 h -6.35 m 0,0 v -3.175 m -6.35,0 h 6.35 m -6.35,3.175 v -3.175 m 0,3.175 h -6.35 m 0,0 v -3.175 m -6.35,0 h 6.35 m -6.35,3.175 v -3.175 m 0,3.175 h -6.35 m 0,0 v -3.175 m -6.35,0 h 6.35 m -6.35,3.175 v -3.175 m 0,3.175 h -6.35 m 0,0 v -3.175 m -6.35,0 h 6.35 m -6.35,3.175 v -3.175 m 0,3.175 h -6.35 m 0,0 v -3.175 m -6.35,0 h 6.35 m -6.35,3.175 v -3.175 m 0,3.175 h -6.35 m 0,0 v -3.175 m -6.35,0 h 6.35 m -6.35,0 v 9.525 m 0,0 h -3.175 m 0,6.35 v -6.35 m 3.175,6.35 h -3.175 m 3.175,0 v 6.35 m 0,0 h -3.175 m 0,6.35 v -6.35 m 3.175,6.35 h -3.175 m 3.175,0 v 6.35 m 0,0 h -3.175 m 0,6.35 v -6.35 m 3.175,6.35 h -3.175 m 3.175,0 v 6.35 m 0,0 h -3.175 m 0,6.35 v -6.35 m 3.175,6.35 h -3.175 m 3.175,0 v 6.35 m 0,0 h -3.175 m 0,6.35 v -6.35 m 3.175,6.35 h -3.175 m 3.175,0 v 6.35 m 0,0 h -3.175 m 0,6.35 v -6.35 m 3.175,6.35 h -3.175 m 3.175,0 v 6.34999 m 0,0 h -3.175 m 0,6.35 v -6.35 m 3.175,6.35 h -3.175 m 3.175,0 v 6.35 m 0,0 h -3.175 m 0,6.34999 v -6.34999 m 3.175,6.34999 h -3.175 m 3.175,0 v 9.525 m 0,0 h 6.35 m 0,-3.175 v 3.175 m 0,-3.175 h 6.35 m 0,0 v 3.175 m 0,0 h 6.35 m 0,-3.175 v 3.175 m 0,-3.175 h 6.35 m 0,0 v 3.175 m 0,0 h 6.35 m 0,-3.175 v 3.175 m 0,-3.175 h 6.35 m 0,0 v 3.175 m 0,0 h 6.35 m 0,-3.175 v 3.175 m 0,-3.175 h 6.35 m 0,0 v 3.175 m 0,0 h 6.35 m 0,-3.175 v 3.175 m 0,-3.175 h 6.35 m 0,0 v 3.175 m 0,0 h 6.35 m 0,-3.175 v 3.175 m 0,-3.175 h 6.35 m 0,0 v 3.175 m 0,0 h 6.35 m 0,-3.175 v 3.175 m 0,-3.175 h 6.35 m 0,0 v 3.175 m 0,0 h 6.35 m 0,-3.175 v 3.175 m 0,-3.175 h 6.35 m 0,0 v 3.175 m 0,0 h 6.35 m 0,-3.175 v 3.175 m 0,-3.175 h 6.35 m 0,0 v 3.175 m 0,0 h 6.35 m 0,-3.175 v 3.175 m 0,-3.175 h 6.35 m 0,0 v 3.175 m 0,0 h 6.35 m 0,-3.175 v 3.175 m 0,-3.175 h 6.35 m 0,0 v 3.175 m 0,0 h 6.35 m 0,-3.175 v 3.175 m 0,-3.175 h 6.35 m 0,0 v 3.175 m 0,0 h 6.35 m 0,-3.175 v 3.175 m 0,-3.175 h 6.35 m 0,0 v 3.175 m 5.5413,-87.14998 h 0.4999 m -0.4999,-3.5 a 1.7500001,1.7500001 0 0 0 0,3.5 m 0,-3.5 h 0.4999 m 0,3.5 a 1.7500001,1.7500001 0 0 0 0,-3.5 m -0.4999,66.99999 h 0.4999 m -0.4999,-3.49998 a 1.7500001,1.7500001 0 0 0 0,3.49998 m 0,-3.49998 h 0.4999 m 0,3.49998 a 1.7500001,1.7500001 0 0 0 0,-3.49998 m -114.0662,-2.49442 h 6.5 m -6.5,-3.49999 a 1.7500005,1.7500005 0 0 0 0,3.49999 m 0,-3.49999 h 6.5 m 0,3.49999 a 1.7500005,1.7500005 0 0 0 0,-3.49999 m 31.6001,3.49999 h 6.5 m -6.5,-3.49999 a 1.7500005,1.7500005 0 0 0 0,3.49999 m 0,-3.49999 h 6.5 m 0,3.49999 a 1.7500005,1.7500005 0 0 0 0,-3.49999 m -12.85,-44.5822 h 6.5 m -6.5,-3.5 a 1.7500001,1.7500001 0 0 0 0,3.5 m 0,-3.5 h 6.5 m 0,3.5 a 1.7500001,1.7500001 0 0 0 0,-3.5 m 31.6,3.5 h 6.5 m -6.5,-3.5 a 1.7500001,1.7500001 0 0 0 0,3.5 m 0,-3.5 h 6.5 m 0,3.5 a 1.7500001,1.7500001 0 0 0 0,-3.5 m 30.3287,-20.3734 a 1.8288,1.8288 0 1 0 -3.6576,0 1.8288,1.8288 0 1 0 3.6576,0 z m -146.05,88.89998 a 1.8288,1.8288 0 1 0 -3.6576,0 1.8288,1.8288 0 1 0 3.6576,0 z m 0,-88.89998 a 1.8288,1.8288 0 1 0 -3.6576,0 1.8288,1.8288 0 1 0 3.6576,0 z m 146.05,88.89998 a 1.8288,1.8288 0 1 0 -3.6576,0 1.8288,1.8288 0 1 0 3.6576,0 z"
         style="fill:none;stroke:#000000;stroke-width:0.15875001;stroke-linecap:round"
         id="path2983" />
      <g
         transform="matrix(0.26458333,0,0,0.26458333,820.14907,-536.0927)"
         id="g1411">
        <path
           inkscape:connector-curvature="0"
           d="m 742.98978,107.03298 a 10.944,10.944 0 1 0 -21.888,0 10.944,10.944 0 1 0 21.888,0 z"
           style="fill:none;stroke:#000000;stroke-width:0.60000002;stroke-linecap:round"
           id="path2985" />
        <path
           inkscape:connector-curvature="0"
           d="m 713.32578,183.83298 a 30.72,30.72 0 1 0 -61.44,0 30.72,30.72 0 1 0 61.44,0 z"
           style="fill:none;stroke:#000000;stroke-width:0.60000002;stroke-linecap:round"
           id="path3043" />
        <path
           inkscape:connector-curvature="0"
           d="m 812.20578,183.83298 a 30.72,30.72 0 1 0 -61.44,0 30.72,30.72 0 1 0 61.44,0 z"
           style="fill:none;stroke:#000000;stroke-width:0.60000002;stroke-linecap:round"
           id="path3045" />
        <path
           inkscape:connector-curvature="0"
           d="m 815.76232,150.76212 a 3.401575,3.401575 0 1 0 -6.80315,0 3.401575,3.401575 0 1 0 6.80315,0 z"
           style="fill:none;stroke:#000000;stroke-width:0.60000002;stroke-linecap:round"
           id="path3047" />
        <path
           inkscape:connector-curvature="0"
           d="m 655.1324,216.90385 a 3.401575,3.401575 0 1 0 -6.80315,0 3.401575,3.401575 0 1 0 6.80315,0 z"
           style="fill:none;stroke:#000000;stroke-width:0.60000002;stroke-linecap:round"
           id="path3049" />
        <path
           inkscape:connector-curvature="0"
           d="m 655.1324,150.76212 a 3.401575,3.401575 0 1 0 -6.80315,0 3.401575,3.401575 0 1 0 6.80315,0 z"
           style="fill:none;stroke:#000000;stroke-width:0.60000002;stroke-linecap:round"
           id="path3051" />
        <path
           inkscape:connector-curvature="0"
           d="m 815.76232,216.90385 a 3.401575,3.401575 0 1 0 -6.80315,0 3.401575,3.401575 0 1 0 6.80315,0 z"
           style="fill:none;stroke:#000000;stroke-width:0.60000002;stroke-linecap:round"
           id="path3053" />
        <path
           inkscape:connector-curvature="0"
           id="path3061"
           style="fill:none;stroke:#000000;stroke-width:0.60000002;stroke-linecap:round"
           d="m 936.04579,207.83298 h 11.99999 m -420,-24 v 24 M 936.04579,39.832982 H 528.04578 m 0,48 v 23.999998 m -11.99999,24 h 11.99999 m 0,0 v 24 m -11.99999,0 v 24 m 0,24 v 24 m 420,-24 v -24 m 11.99999,24 v 24 m 0,-48 h -11.99999 m 11.99999,-24 v 24 m -11.99999,-24 h 11.99999 m -11.99999,0 v -24 m 11.99999,0 h -11.99999 m 11.99999,-24 v 24 m -11.99999,-24 h 11.99999 m -11.99999,0 V 87.832982 m 11.99999,0 H 936.04579 M 948.04578,63.83298 V 87.832982 M 936.04579,63.83298 h 11.99999 m -11.99999,0 V 39.832982 M 528.04578,207.83298 H 516.04579 M 528.04578,39.832982 V 63.83298 m 0,0 h -11.99999 m 0,0 v 24.000002 m 0,0 h 11.99999 m 0,23.999998 h -11.99999 m 0,0 v 24 m 11.99999,24 h -11.99999 m 0,24 h 11.99999 m -11.99999,48 h 431.99999" />
      </g>
      <path
         inkscape:connector-curvature="0"
         d="m 1115.0686,-422.52556 a 10.477503,10.477503 0 1 0 -20.955,0 10.477503,10.477503 0 1 0 20.955,0 z m -50.8,0 a 10.4775,10.4775 0 1 0 -20.955,0 10.4775,10.4775 0 1 0 20.955,0 z m 62.5475,53.975 h 9.525 m 0,0 v -3.175 m 0,0 h -3.175 m 0,0 v -6.35 m 0,0 h 3.175 m 0,-6.35 v 6.35 m -3.175,-6.35 h 3.175 m -3.175,0 v -6.35 m 0,0 h 3.175 m 0,-6.35 v 6.35 m -3.175,-6.35 h 3.175 m -3.175,0 v -6.35 m 0,0 h 3.175 m 0,-6.35 v 6.35 m -3.175,-6.35 h 3.175 m -3.175,0 v -6.35 m 0,0 h 3.175 m 0,-6.35 v 6.35 m -3.175,-6.35 h 3.175 m -3.175,0 v -6.35 m 0,0 h 3.175 m 0,-6.35 v 6.35 m -3.175,-6.35 h 3.175 m -3.175,0 v -6.35 m 0,0 h 3.175 m 0,-6.35 v 6.35 m -3.175,-6.35 h 3.175 m -3.175,0 v -6.35 m 0,0 h 3.175 m 0,-6.35 v 6.35 m -3.175,-6.35 h 3.175 m -3.175,0 v -6.35 m 0,0 h 3.175 m 0,-4.9276 v 4.9276 m 0,-4.9276 h -114.3 m 0,0 v 4.9276 m 3.175,0 h -3.175 m 3.175,0 v 6.35 m 0,0 h -3.175 m 0,0 v 6.35 m 3.175,0 h -3.175 m 3.175,0 v 6.35 m 0,0 h -3.175 m 0,0 v 6.35 m 3.175,0 h -3.175 m 3.175,0 v 6.35 m 0,0 h -3.175 m 0,0 v 6.35 m 3.175,0 h -3.175 m 3.175,0 v 6.35 m 0,0 h -3.175 m 0,0 v 6.35 m 3.175,0 h -3.175 m 3.175,0 v 6.35 m 0,0 h -3.175 m 0,0 v 6.35 m 3.175,0 h -3.175 m 3.175,0 v 6.35 m 0,0 h -3.175 m 0,0 v 6.35 m 3.175,0 h -3.175 m 3.175,0 v 6.35 m 0,0 h -3.175 m 0,0 v 6.35 m 3.175,0 h -3.175 m 3.175,0 v 6.35 m 0,0 h -3.175 m 0,0 v 3.175 m 0,0 h 9.525 m 0,-3.175 v 3.175 m 0,-3.175 h 6.35 m 0,0 v 3.175 m 0,0 h 6.35 m 0,-3.175 v 3.175 m 0,-3.175 h 6.35 m 0,0 v 3.175 m 0,0 h 6.35 m 0,-3.175 v 3.175 m 0,-3.175 h 6.35 m 0,0 v 3.175 m 0,0 h 6.35 m 0,-3.175 v 3.175 m 0,-3.175 h 6.35 m 0,0 v 3.175 m 0,0 h 6.35 m 0,-3.175 v 3.175 m 0,-3.175 h 6.35 m 0,0 v 3.175 m 0,0 h 6.35 m 0,-3.175 v 3.175 m 0,-3.175 h 6.35 m 0,0 v 3.175 m 0,0 h 6.35 m 0,-3.175 v 3.175 m 0,-3.175 h 6.35 m 0,0 v 3.175 m 0,0 h 6.35 m 0,-3.175 v 3.175 m 0,-3.175 h 6.35 m 0,0 v 3.175 m -14.125,-98.1162 a 1.7500071,1.7500071 0 0 0 -3.5,0 m 3.5,0.5 v -0.5 m -3.5,0.5 a 1.7500071,1.7500071 0 0 0 3.5,0 m -3.5,0 v -0.5 m -60,0 a 1.7500005,1.7500005 0 0 0 -3.5,0 m 3.5,0.5 v -0.5 m -3.5,0.5 a 1.7500005,1.7500005 0 0 0 3.5,0 m -3.5,0 v -0.5"
         style="fill:none;stroke:#000000;stroke-width:0.15875001;stroke-linecap:round"
         id="path3305" />
      <path
         inkscape:connector-curvature="0"
         d="m 1008.0032,-254.96771 h 11.176 m 0,0 a 1.524,1.524 0 0 0 1.524,-1.524 m 0,0 v -61.01594 m 0,0 a 2.54,2.54 0 0 0 -0.635,-1.68005 m 0,0 -3.5651,-4.04248 m 0,0 2.3813,-2.10007 m 0,0 -4.2002,-4.7625 m -2.3812,2.10007 2.3812,-2.10007 m -2.3812,2.10007 -4.2002,-4.7625 m 0,0 2.3813,-2.10007 m 0,0 -4.2001,-4.7625 m -2.3813,2.10007 2.3813,-2.10007 m -2.3813,2.10007 -4.20011,-4.76251 m 0,0 2.38121,-2.10006 m 0,0 -4.20009,-4.7625 m -2.38125,2.10007 2.38125,-2.10007 m -2.38125,2.10007 -4.20013,-4.7625 m 0,0 2.38125,-2.10007 m 0,0 -4.20013,-4.7625 m 0,0 h -2.01095 m -0.3703,2.10007 0.3703,-2.10007 m -0.3703,2.10007 H 844.42724 m 0,0 a 1.524,1.524 0 0 0 -1.524,1.524 m 0,-1e-5 v 4.82601 m 0,0 h -3.175 m 0,0 v 6.35 m 3.175,0 h -3.175 m 3.175,0 v 6.35 m 0,0 h -3.175 m 0,0 v 6.35 m 3.175,0 h -3.175 m 3.175,0 v 6.35 m 0,0 h -3.175 m 0,0 v 6.35 m 3.175,0 h -3.175 m 3.175,0 v 6.35 m 0,0 h -3.175 m 0,0 v 6.35 m 3.175,0 h -3.175 m 3.175,0 v 6.35 m 0,0 h -3.175 m 0,0 v 6.35 m 3.175,0 h -3.175 m 3.175,0 v 6.35 m 0,0 h -3.175 m 0,0 v 6.34998 m 3.175,0 h -3.175 m 3.175,0 v 6.35 m 0,0 h -3.175 m 0,0 v 6.35 m 3.175,0 h -3.175 m 3.175,0 v 6.34999 m 0,0 h -3.175 m 0,0 v 6.35 m 0,0 h 9.525 m 0,0 v 3.175 m 6.35,0 h -6.35 m 6.35,-3.175 v 3.175 m 0,-3.175 h 6.35 m 0,0 v 3.175 m 6.35,0 h -6.35 m 6.35,-3.175 v 3.175 m 0,-3.175 h 6.35 m 0,0 v 3.175 m 6.35,0 h -6.35 m 6.35,-3.175 v 3.175 m 0,-3.175 h 6.35 m 0,0 v 3.175 m 6.35,0 h -6.35 m 6.35,-3.175 v 3.175 m 0,-3.175 h 6.35 m 0,0 v 3.175 m 6.35,0 h -6.35 m 6.35,-3.175 v 3.175 m 0,-3.175 h 6.35 m 0,0 v 3.175 m 6.35,0 h -6.35 m 6.35,-3.175 v 3.175 m 0,-3.175 h 6.35 m 0,0 v 3.175 m 6.35,0 h -6.35 m 6.35,-3.175 v 3.175 m 0,-3.175 h 6.35 m 0,0 v 3.175 m 6.35,0 h -6.35 m 6.35,-3.175 v 3.175 m 0,-3.175 h 6.35 m 0,0 v 3.175 m 6.35,0 h -6.35 m 6.35,-3.175 v 3.175 m 0,-3.175 h 6.35 m 0,0 v 3.175 m 6.35,0 h -6.35 m 6.35,-3.175 v 3.175 m 0,-3.175 h 6.35 m 0,0 v 3.175 m 6.35,0 h -6.35 m 6.35,-3.175 v 3.175 m 0,-3.175 h 6.35 m 0,0 v 3.175 m 6.35001,0 h -6.35001 m 6.35001,-3.175 v 3.175 m 0,-3.175 h 6.34995 m 0,0 v 3.175 m 6.35,0 h -6.35 m 6.35,-3.175 v 3.175"
         style="fill:none;stroke:#000000;stroke-width:0.15875001;stroke-linecap:round"
         id="path3517" />
      <path
         inkscape:connector-curvature="0"
         d="m 842.90324,-363.43702 v -4.826 m 177.79996,-32.71003 v -61.01597 m 0,0 a 1.524,1.524 0 0 0 -1.524,-1.524 m -11.176,0 h 11.176 m -11.176,0 v -3.175 m 0,0 h -6.35 m 0,3.175 v -3.175 m -6.34996,3.175 h 6.34996 m -6.34996,0 v -3.175 m 0,0 h -6.35 m 0,3.175 v -3.175 m -6.35,3.175 h 6.35 m -6.35,0 v -3.175 m 0,0 h -6.35 m 0,3.175 v -3.175 m -6.35,3.175 h 6.35 m -6.35,0 v -3.175 m 0,0 h -6.35 m 0,3.175 v -3.175 m -6.35,3.175 h 6.35 m -6.35,0 v -3.175 m 0,0 h -6.35 m 0,3.175 v -3.175 m -6.35,3.175 h 6.35 m -6.35,0 v -3.175 m 0,0 h -6.35 m 0,3.175 v -3.175 m -6.35,3.175 h 6.35 m -6.35,0 v -3.175 m 0,0 h -6.35 m 0,3.175 v -3.175 m -6.35,3.175 h 6.35 m -6.35,0 v -3.175 m 0,0 h -6.35 m 0,3.175 v -3.175 m -6.35,3.175 h 6.35 m -6.35,0 v -3.175 m 0,0 h -6.35 m 0,3.175 v -3.175 m -6.35,3.175 h 6.35 m -6.35,0 v -3.175 m 0,0 h -6.35 m 0,3.175 v -3.175 m -6.35,3.175 h 6.35 m -6.35,0 v -3.175 m 0,0 h -6.35 m 0,3.175 v -3.175 m -6.35,3.175 h 6.35 m -6.35,0 v -3.175 m 0,0 h -6.35 m 0,3.175 v -3.175 m -6.35,3.175 h 6.35 m -6.35,0 v -3.175 m 0,0 h -6.35 m 0,3.175 v -3.175 m -9.525,3.175 h 9.525 m -9.525,6.35 v -6.35 m 3.175,6.35 h -3.175 m 3.175,6.35 v -6.35 m 0,6.35 h -3.175 m 0,6.35 v -6.35 m 3.175,6.35 h -3.175 m 3.175,6.35 v -6.35 m 0,6.35 h -3.175 m 0,6.35 v -6.35 m 3.175,6.35 h -3.175 m 3.175,6.35 v -6.35 m 0,6.35 h -3.175 m 0,6.35 v -6.35 m 3.175,6.35 h -3.175 m 3.175,6.35 v -6.35 m 0,6.35 h -3.175 m 0,6.35 v -6.35 m 3.175,6.35 h -3.175 m 3.175,6.35 v -6.35 m 0,6.35 h -3.175 m 0,6.35 v -6.35 m 3.175,6.35 h -3.175 m 3.175,6.35 v -6.35 m 0,6.35 h -3.175 m 0,6.35 v -6.35 m 3.175,6.35 h -3.175 m 3.175,6.35 v -6.35 m 0,6.35 h -3.175 m 0,6.35 v -6.35 m 3.175,6.35 h -3.175 m 3.175,4.826 a 1.524,1.524 0 0 0 1.524,1.524 m 142.67496,0 H 844.42724 m 142.67496,0 0.3703,2.10006 m 2.01095,0 h -2.01095 m 6.21108,-4.7625 -4.20013,4.7625 m 1.81888,-6.86256 2.38125,2.10006 m 1.81888,-6.86256 -4.20013,4.7625 m 4.20013,-4.7625 2.38125,2.10006 m 4.20009,-4.7625 -4.20009,4.7625 m 1.81888,-6.86256 2.38121,2.10006 m 1.8189,-6.86256 -4.20011,4.7625 m 4.20011,-4.7625 2.3813,2.10006 m 4.2001,-4.7625 -4.2001,4.7625 m 1.8188,-6.86256 2.3813,2.10006 m 1.8189,-6.86256 -4.2002,4.7625 m 4.2002,-4.7625 2.3812,2.10006 m 4.2002,-4.7625 -4.2002,4.7625 m 1.8189,-6.86256 2.3813,2.10006 m 1.1838,-6.14254 -3.5651,4.04248 m 3.5651,-4.04248 a 2.54,2.54 0 0 0 0.635,-1.68005"
         style="fill:none;stroke:#000000;stroke-width:0.15875001;stroke-linecap:round"
         id="path3729" />
      <g
         transform="matrix(0.26458333,0,0,0.26458333,830.73241,-540.8552)"
         id="g1401">
        <path
           inkscape:connector-curvature="0"
           d="m 1183.2493,539.21855 h 1.8898"
           style="fill:none;stroke:#000000;stroke-width:0.60000002;stroke-linecap:round"
           id="path3731" />
        <path
           inkscape:connector-curvature="0"
           d="m 1185.1391,539.21855 a 6.614175,6.614175 0 0 0 0,-13.22835"
           style="fill:none;stroke:#000000;stroke-width:0.60000002;stroke-linecap:round"
           id="path3733" />
        <path
           inkscape:connector-curvature="0"
           d="m 1183.2493,525.9902 h 1.8898"
           style="fill:none;stroke:#000000;stroke-width:0.60000002;stroke-linecap:round"
           id="path3735" />
        <path
           inkscape:connector-curvature="0"
           d="m 1183.2493,525.9902 a 6.614175,6.614175 0 0 0 0,13.22835"
           style="fill:none;stroke:#000000;stroke-width:0.60000002;stroke-linecap:round"
           id="path3737" />
        <path
           inkscape:connector-curvature="0"
           id="path3745"
           style="fill:none;stroke:#000000;stroke-width:0.60000002;stroke-linecap:round"
           d="M 1703.0742,652.60437 V 220.60438 m 0,0 h -539.616 m 0,0 v 431.99999 m 0,0 h 539.616" />
        <path
           inkscape:connector-curvature="0"
           d="m 1183.2493,347.21855 h 1.8898"
           style="fill:none;stroke:#000000;stroke-width:0.60000002;stroke-linecap:round"
           id="path3747" />
        <path
           inkscape:connector-curvature="0"
           d="m 1185.1391,347.21855 a 6.614175,6.614175 0 0 0 0,-13.22835"
           style="fill:none;stroke:#000000;stroke-width:0.60000002;stroke-linecap:round"
           id="path3749" />
        <path
           inkscape:connector-curvature="0"
           d="m 1183.2493,333.99021 h 1.8898"
           style="fill:none;stroke:#000000;stroke-width:0.60000002;stroke-linecap:round"
           id="path3751" />
        <path
           inkscape:connector-curvature="0"
           d="m 1183.2493,333.9902 a 6.614175,6.614175 0 0 0 0,13.22835"
           style="fill:none;stroke:#000000;stroke-width:0.60000002;stroke-linecap:round"
           id="path3753" />
      </g>
      <g
         transform="matrix(0.26458333,0,0,0.26458333,571.88576,-507.5177)"
         id="g2683">
        <path
           inkscape:connector-curvature="0"
           d="m 1138.9322,124.47895 v 1.88976"
           style="fill:none;stroke:#000000;stroke-width:0.60000002;stroke-linecap:round"
           id="path3063" />
        <path
           inkscape:connector-curvature="0"
           d="m 1138.9322,124.47895 a 6.614175,6.614175 0 0 0 -13.2283,0"
           style="fill:none;stroke:#000000;stroke-width:0.60000002;stroke-linecap:round"
           id="path3065" />
        <path
           inkscape:connector-curvature="0"
           d="m 1125.7039,124.47895 v 1.88976"
           style="fill:none;stroke:#000000;stroke-width:0.60000002;stroke-linecap:round"
           id="path3067" />
        <path
           inkscape:connector-curvature="0"
           d="m 1125.7039,126.36871 a 6.614175,6.614175 0 0 0 13.2283,0"
           style="fill:none;stroke:#000000;stroke-width:0.60000002;stroke-linecap:round"
           id="path3069" />
        <path
           inkscape:connector-curvature="0"
           id="path3077"
           style="fill:none;stroke:#000000;stroke-width:0.60000002;stroke-linecap:round"
           d="m 1444.3181,146.15983 v -234.624 m 0,0 h -432 m 0,0 v 234.624 m 0,0 h 432" />
        <path
           inkscape:connector-curvature="0"
           d="m 1330.9322,124.47895 a 6.614175,6.614175 0 0 0 -13.2283,0"
           style="fill:none;stroke:#000000;stroke-width:0.60000002;stroke-linecap:round"
           id="path3079" />
        <path
           inkscape:connector-curvature="0"
           d="m 1317.7039,124.47895 v 1.88976"
           style="fill:none;stroke:#000000;stroke-width:0.60000002;stroke-linecap:round"
           id="path3081" />
        <path
           inkscape:connector-curvature="0"
           d="m 1317.7039,126.36871 a 6.614175,6.614175 0 0 0 13.2283,0"
           style="fill:none;stroke:#000000;stroke-width:0.60000002;stroke-linecap:round"
           id="path3083" />
        <path
           inkscape:connector-curvature="0"
           d="m 1330.9322,124.47895 v 1.88976"
           style="fill:none;stroke:#000000;stroke-width:0.60000002;stroke-linecap:round"
           id="path3085" />
      </g>
    </g>
  </g>
</svg>
