<?xml version="1.0" encoding="UTF-8" standalone="no"?>
<svg
   xmlns:dc="http://purl.org/dc/elements/1.1/"
   xmlns:cc="http://creativecommons.org/ns#"
   xmlns:rdf="http://www.w3.org/1999/02/22-rdf-syntax-ns#"
   xmlns:svg="http://www.w3.org/2000/svg"
   xmlns="http://www.w3.org/2000/svg"
   xmlns:sodipodi="http://sodipodi.sourceforge.net/DTD/sodipodi-0.dtd"
   xmlns:inkscape="http://www.inkscape.org/namespaces/inkscape"
   width="1220mm"
   height="610mm"
   version="1.1"
   id="svg5107"
   sodipodi:docname="linkage5.svg"
   inkscape:version="0.92.3 (2405546, 2018-03-11)">
  <metadata
     id="metadata5111">
    <rdf:RDF>
      <cc:Work
         rdf:about="">
        <dc:format>image/svg+xml</dc:format>
        <dc:type
           rdf:resource="http://purl.org/dc/dcmitype/StillImage" />
        <dc:title />
      </cc:Work>
    </rdf:RDF>
  </metadata>
  <sodipodi:namedview
     pagecolor="#ffffff"
     bordercolor="#666666"
     borderopacity="1"
     objecttolerance="10"
     gridtolerance="10"
     guidetolerance="10"
     inkscape:pageopacity="0"
     inkscape:pageshadow="2"
     inkscape:window-width="1600"
     inkscape:window-height="832"
     id="namedview5109"
     showgrid="false"
     inkscape:document-units="mm"
     units="mm"
     inkscape:zoom="5.6396912"
     inkscape:cx="91.526177"
     inkscape:cy="24.0195"
     inkscape:window-x="0"
     inkscape:window-y="0"
     inkscape:window-maximized="1"
     inkscape:current-layer="g5105" />
  <desc
     id="desc4942">/home/torsten/projects/Exceptionally-Useless-Box/Laser Cutting Files/Linkage Laser Cut Layout.DXF - scale = 25.400000, origin = (0.000000, 0.000000), method = file</desc>
  <defs
     id="defs4957">
    <marker
       id="DistanceX"
       orient="auto"
       refX="0"
       refY="0"
       style="overflow:visible">
      <path
         d="M 3,-3 -3,3 M 0,-5 V 5"
         style="stroke:#000000;stroke-width:0.5"
         id="path4944"
         inkscape:connector-curvature="0" />
    </marker>
    <pattern
       height="8"
       id="Hatch"
       patternUnits="userSpaceOnUse"
       width="8"
       x="0"
       y="0">
      <path
         d="M8 4 l-4,4"
         linecap="square"
         stroke="#000000"
         stroke-width="0.25"
         id="path4947" />
      <path
         d="M6 2 l-4,4"
         linecap="square"
         stroke="#000000"
         stroke-width="0.25"
         id="path4949" />
      <path
         d="M4 0 l-4,4"
         linecap="square"
         stroke="#000000"
         stroke-width="0.25"
         id="path4951" />
    </pattern>
    <symbol
       id="*Model_Space" />
    <symbol
       id="*Paper_Space" />
    <symbol
       id="*Paper_Space0" />
  </defs>
  <g
     inkscape:groupmode="layer"
     inkscape:label="0"
     id="g5105"
     transform="translate(0,1182.992)">
    <path
       id="path873"
       style="display:inline;fill:none;stroke:#000000;stroke-width:1px;stroke-linecap:butt;stroke-linejoin:miter;stroke-opacity:1"
       d="m 57.109432,1084.0588 c 40.67219,-0.1096 73.560958,0.048 111.487118,-0.09 6.9482,-0.025 15.04185,6.1078 14.42263,15.0496 -0.59665,8.6159 -7.78048,13.8009 -14.42263,13.7504 -42.67148,-0.3241 -71.597398,-0.2567 -108.080088,0 -4.14712,0.029 -8.37455,0.1444 -12.38278,1.2091 -4.08355,1.0847 -7.82964,3.2141 -11.56383,5.1909 -21.2833,11.267 -37.10210978,-8.3204 -36.55613978,-22.6437 0.52284,-13.7163 17.10711978,-28.611 36.55613978,-18.9563 3.09627,1.537 6.27675,2.9436 9.56922,3.9967 3.57179,1.1424 7.22033,2.5034 10.97036,2.4933 z m 63.865068,14.31 a 5.669291,5.669291 0 1 0 -11.33858,0 5.669291,5.669291 0 1 0 11.33858,0 z m -15.11811,0 a 5.6692915,5.6692915 0 1 0 -11.338578,0 5.6692915,5.6692915 0 1 0 11.338578,0 z m 68.74016,0 a 6,6 0 1 0 -12,0 6,6 0 1 0 12,0 z m -144.330708,0 a 5.6692915,5.6692915 0 1 0 -11.33858,0 5.6692915,5.6692915 0 1 0 11.33858,0 z"
       inkscape:connector-curvature="0" />
  </g>
</svg>
