<?xml version="1.0" encoding="UTF-8" standalone="no"?>
<svg
   xmlns:dc="http://purl.org/dc/elements/1.1/"
   xmlns:cc="http://creativecommons.org/ns#"
   xmlns:rdf="http://www.w3.org/1999/02/22-rdf-syntax-ns#"
   xmlns:svg="http://www.w3.org/2000/svg"
   xmlns="http://www.w3.org/2000/svg"
   xmlns:sodipodi="http://sodipodi.sourceforge.net/DTD/sodipodi-0.dtd"
   xmlns:inkscape="http://www.inkscape.org/namespaces/inkscape"
   width="1220mm"
   height="610mm"
   version="1.1"
   id="svg5107"
   sodipodi:docname="linkage1.svg"
   inkscape:version="0.92.3 (2405546, 2018-03-11)">
  <metadata
     id="metadata5111">
    <rdf:RDF>
      <cc:Work
         rdf:about="">
        <dc:format>image/svg+xml</dc:format>
        <dc:type
           rdf:resource="http://purl.org/dc/dcmitype/StillImage" />
        <dc:title />
      </cc:Work>
    </rdf:RDF>
  </metadata>
  <sodipodi:namedview
     pagecolor="#ffffff"
     bordercolor="#666666"
     borderopacity="1"
     objecttolerance="10"
     gridtolerance="10"
     guidetolerance="10"
     inkscape:pageopacity="0"
     inkscape:pageshadow="2"
     inkscape:window-width="1600"
     inkscape:window-height="832"
     id="namedview5109"
     showgrid="false"
     inkscape:document-units="mm"
     units="mm"
     inkscape:zoom="3.3706738"
     inkscape:cx="129.77697"
     inkscape:cy="60.373877"
     inkscape:window-x="0"
     inkscape:window-y="0"
     inkscape:window-maximized="1"
     inkscape:current-layer="g5105" />
  <desc
     id="desc4942">/home/torsten/projects/Exceptionally-Useless-Box/Laser Cutting Files/Linkage Laser Cut Layout.DXF - scale = 25.400000, origin = (0.000000, 0.000000), method = file</desc>
  <defs
     id="defs4957">
    <marker
       id="DistanceX"
       orient="auto"
       refX="0"
       refY="0"
       style="overflow:visible">
      <path
         d="M 3,-3 -3,3 M 0,-5 V 5"
         style="stroke:#000000;stroke-width:0.5"
         id="path4944"
         inkscape:connector-curvature="0" />
    </marker>
    <pattern
       height="8"
       id="Hatch"
       patternUnits="userSpaceOnUse"
       width="8"
       x="0"
       y="0">
      <path
         d="M8 4 l-4,4"
         linecap="square"
         stroke="#000000"
         stroke-width="0.25"
         id="path4947" />
      <path
         d="M6 2 l-4,4"
         linecap="square"
         stroke="#000000"
         stroke-width="0.25"
         id="path4949" />
      <path
         d="M4 0 l-4,4"
         linecap="square"
         stroke="#000000"
         stroke-width="0.25"
         id="path4951" />
    </pattern>
    <symbol
       id="*Model_Space" />
    <symbol
       id="*Paper_Space" />
    <symbol
       id="*Paper_Space0" />
  </defs>
  <g
     inkscape:groupmode="layer"
     inkscape:label="0"
     id="g5105"
     transform="translate(0,1182.992)">
    <path
       id="path865"
       transform="translate(0,-1182.992)"
       style="display:inline;fill:none;stroke:#000000;stroke-width:1px;stroke-linecap:butt;stroke-linejoin:miter;stroke-opacity:1"
       d="m 44.681692,2222.9132 c 17.993488,13.1067 42.643576,18.676 64.495288,17.3298 38.66806,-2.3822 64.83801,-20.0767 81.82355,-42.36 3.56429,-4.676 11.46892,-6.8877 16.96976,-4.8116 5.04989,1.9059 8.86213,8.2118 8.77542,13.6087 -0.71842,44.7135 -0.36724,44.3047 0.37913,76.799 0.15437,6.7207 -5.9922,14.3191 -14.49473,14.0224 -9.30849,-0.3248 -14.71748,-7.249 -14.30493,-13.8803 0.58812,-9.4534 -0.23743,-15.1396 -0.12352,-25.0213 0.10482,-9.0934 -9.45343,-10.727 -14.41028,-8.2604 -19.91612,9.9106 -32.56508,20.0821 -79.151549,17.7911 -24.18561,-1.1894 -48.188542,-7.9905 -68.847231,-23.1794 -1.497626,-1.1011 -5.322685,-1.6635 -5.322685,-1.6635 0,0 -9.390242,-1.2752 -12.7563238,-4.2314 -4.7855883,-4.2029 -8.9525857,-10.8709 -8.30694437,-17.2073 0.85815039,-8.4219 6.96552117,-16.7515 15.13050517,-18.9873 9.086829,-2.4882 13.968472,-0.4786 19.283979,3.2635 5.449847,3.8367 5.473338,12.8639 10.860561,16.788 z m 164.020488,60.114 a 6.0000032,6.0000032 0 1 0 -11.95434,1.0459 6.0000032,6.0000032 0 1 0 11.95434,-1.0459 z m -0.37915,-76.799 a 6,6 0 1 0 -11.95431,1.046 6,6 0 1 0 11.95431,-1.046 z m -176.387625,15.4319 a 11.338584,11.338584 0 1 0 -22.5908613,1.9766 11.338584,11.338584 0 1 0 22.5908613,-1.9766 z" />
  </g>
</svg>
