<?xml version="1.0" encoding="UTF-8" standalone="no"?>
<svg
   xmlns:dc="http://purl.org/dc/elements/1.1/"
   xmlns:cc="http://creativecommons.org/ns#"
   xmlns:rdf="http://www.w3.org/1999/02/22-rdf-syntax-ns#"
   xmlns:svg="http://www.w3.org/2000/svg"
   xmlns="http://www.w3.org/2000/svg"
   xmlns:sodipodi="http://sodipodi.sourceforge.net/DTD/sodipodi-0.dtd"
   xmlns:inkscape="http://www.inkscape.org/namespaces/inkscape"
   width="1220mm"
   height="610mm"
   version="1.1"
   id="svg5107"
   sodipodi:docname="linkage1.svg"
   inkscape:version="0.92.3 (2405546, 2018-03-11)">
  <metadata
     id="metadata5111">
    <rdf:RDF>
      <cc:Work
         rdf:about="">
        <dc:format>image/svg+xml</dc:format>
        <dc:type
           rdf:resource="http://purl.org/dc/dcmitype/StillImage" />
        <dc:title />
      </cc:Work>
    </rdf:RDF>
  </metadata>
  <sodipodi:namedview
     pagecolor="#ffffff"
     bordercolor="#666666"
     borderopacity="1"
     objecttolerance="10"
     gridtolerance="10"
     guidetolerance="10"
     inkscape:pageopacity="0"
     inkscape:pageshadow="2"
     inkscape:window-width="1600"
     inkscape:window-height="832"
     id="namedview5109"
     showgrid="false"
     inkscape:document-units="mm"
     units="mm"
     inkscape:zoom="1.9294168"
     inkscape:cx="268.69321"
     inkscape:cy="125.6615"
     inkscape:window-x="0"
     inkscape:window-y="0"
     inkscape:window-maximized="1"
     inkscape:current-layer="g5105" />
  <desc
     id="desc4942">/home/torsten/projects/Exceptionally-Useless-Box/Laser Cutting Files/Linkage Laser Cut Layout.DXF - scale = 25.400000, origin = (0.000000, 0.000000), method = file</desc>
  <defs
     id="defs4957">
    <marker
       id="DistanceX"
       orient="auto"
       refX="0"
       refY="0"
       style="overflow:visible">
      <path
         d="M 3,-3 -3,3 M 0,-5 V 5"
         style="stroke:#000000;stroke-width:0.5"
         id="path4944"
         inkscape:connector-curvature="0" />
    </marker>
    <pattern
       height="8"
       id="Hatch"
       patternUnits="userSpaceOnUse"
       width="8"
       x="0"
       y="0">
      <path
         d="M8 4 l-4,4"
         linecap="square"
         stroke="#000000"
         stroke-width="0.25"
         id="path4947" />
      <path
         d="M6 2 l-4,4"
         linecap="square"
         stroke="#000000"
         stroke-width="0.25"
         id="path4949" />
      <path
         d="M4 0 l-4,4"
         linecap="square"
         stroke="#000000"
         stroke-width="0.25"
         id="path4951" />
    </pattern>
    <symbol
       id="*Model_Space" />
    <symbol
       id="*Paper_Space" />
    <symbol
       id="*Paper_Space0" />
  </defs>
  <g
     inkscape:groupmode="layer"
     inkscape:label="0"
     id="g5105"
     transform="translate(0,1182.992)">
    <g
       id="g906"
       transform="translate(-47.369237,139.74007)">
      <path
         inkscape:connector-curvature="0"
         id="path4965"
         style="fill:none;stroke:#000000;stroke-width:0.60000002;stroke-linecap:round"
         d="m 250.09345,968.37974 a 6,6 0 1 0 -12,0 6,6 0 1 0 12,0 z" />
      <path
         inkscape:connector-curvature="0"
         id="path4969"
         style="fill:none;stroke:#000000;stroke-width:0.60000002;stroke-linecap:round"
         d="m 256.40923,891.83988 a 6,6 0 1 0 -12,0 6,6 0 1 0 12,0 z" />
      <path
         inkscape:connector-curvature="0"
         id="path4971"
         style="fill:none;stroke:#000000;stroke-width:0.60000002;stroke-linecap:round"
         d="m 79.347815,891.83988 a 11.338583,11.338583 0 1 0 -22.677166,0 11.338583,11.338583 0 1 0 22.677166,0 z" />
      <path
         d="m 88.335857,888.25685 a 20.64,20.64 0 1 0 -22.294874,24.12897 m 5.157447,2.12121 a 139.12663,139.12663 0 0 0 146.96599,18.26669 m 13.6355,9.48495 -2.0577,24.93686 m 0,0 a 14.4,14.4 0 1 0 28.70245,2.36842 m 6.31579,-76.53986 -6.31579,76.53986 m 6.31579,-76.53986 A 14.4,14.4 0 0 0 239.87997,882.01671 M 91.936387,894.19914 A 110.32663,110.32663 0 0 0 239.87997,882.01671 m -151.544113,6.24014 a 9.6,9.6 0 0 0 3.60053,5.94229 M 71.19843,914.50703 a 9.6,9.6 0 0 0 -5.157447,-2.12121 m 165.758937,29.87285 a 9.6,9.6 0 0 0 -13.6355,-9.48495"
         style="fill:none;stroke:#000000;stroke-width:0.60000002;stroke-linecap:round"
         id="path4983"
         inkscape:connector-curvature="0" />
    </g>
  </g>
</svg>
