<?xml version="1.0" encoding="UTF-8" standalone="no"?>
<svg
   xmlns:dc="http://purl.org/dc/elements/1.1/"
   xmlns:cc="http://creativecommons.org/ns#"
   xmlns:rdf="http://www.w3.org/1999/02/22-rdf-syntax-ns#"
   xmlns:svg="http://www.w3.org/2000/svg"
   xmlns="http://www.w3.org/2000/svg"
   xmlns:sodipodi="http://sodipodi.sourceforge.net/DTD/sodipodi-0.dtd"
   xmlns:inkscape="http://www.inkscape.org/namespaces/inkscape"
   width="1220mm"
   height="610mm"
   version="1.1"
   id="svg5107"
   sodipodi:docname="Linkage Laser Cut Layout.svg"
   inkscape:version="0.92.3 (2405546, 2018-03-11)">
  <metadata
     id="metadata5111">
    <rdf:RDF>
      <cc:Work
         rdf:about="">
        <dc:format>image/svg+xml</dc:format>
        <dc:type
           rdf:resource="http://purl.org/dc/dcmitype/StillImage" />
        <dc:title></dc:title>
      </cc:Work>
    </rdf:RDF>
  </metadata>
  <sodipodi:namedview
     pagecolor="#ffffff"
     bordercolor="#666666"
     borderopacity="1"
     objecttolerance="10"
     gridtolerance="10"
     guidetolerance="10"
     inkscape:pageopacity="0"
     inkscape:pageshadow="2"
     inkscape:window-width="1600"
     inkscape:window-height="832"
     id="namedview5109"
     showgrid="false"
     inkscape:document-units="mm"
     units="mm"
     inkscape:zoom="1.9294168"
     inkscape:cx="268.6932"
     inkscape:cy="125.6615"
     inkscape:window-x="0"
     inkscape:window-y="0"
     inkscape:window-maximized="1"
     inkscape:current-layer="g5105" />
  <desc
     id="desc4942">/home/torsten/projects/Exceptionally-Useless-Box/Laser Cutting Files/Linkage Laser Cut Layout.DXF - scale = 25.400000, origin = (0.000000, 0.000000), method = file</desc>
  <defs
     id="defs4957">
    <marker
       id="DistanceX"
       orient="auto"
       refX="0"
       refY="0"
       style="overflow:visible">
      <path
         d="M 3,-3 -3,3 M 0,-5 V 5"
         style="stroke:#000000;stroke-width:0.5"
         id="path4944"
         inkscape:connector-curvature="0" />
    </marker>
    <pattern
       height="8"
       id="Hatch"
       patternUnits="userSpaceOnUse"
       width="8"
       x="0"
       y="0">
      <path
         d="M8 4 l-4,4"
         linecap="square"
         stroke="#000000"
         stroke-width="0.25"
         id="path4947" />
      <path
         d="M6 2 l-4,4"
         linecap="square"
         stroke="#000000"
         stroke-width="0.25"
         id="path4949" />
      <path
         d="M4 0 l-4,4"
         linecap="square"
         stroke="#000000"
         stroke-width="0.25"
         id="path4951" />
    </pattern>
    <symbol
       id="*Model_Space" />
    <symbol
       id="*Paper_Space" />
    <symbol
       id="*Paper_Space0" />
  </defs>
  <g
     inkscape:groupmode="layer"
     inkscape:label="0"
     id="g5105"
     transform="translate(0,1182.992)">
    <path
       d="m 231.79992,942.25867 a 9.6,9.6 0 0 0 -13.6355,-9.48495"
       style="fill:none;stroke:#000000;stroke-width:0.60000002;stroke-linecap:round"
       id="path4959"
       inkscape:connector-curvature="0" />
    <path
       d="m 71.19843,914.50703 a 9.6,9.6 0 0 0 -5.157447,-2.12121"
       style="fill:none;stroke:#000000;stroke-width:0.60000002;stroke-linecap:round"
       id="path4961"
       inkscape:connector-curvature="0" />
    <path
       d="m 88.335857,888.25685 a 9.6,9.6 0 0 0 3.60053,5.94229"
       style="fill:none;stroke:#000000;stroke-width:0.60000002;stroke-linecap:round"
       id="path4963"
       inkscape:connector-curvature="0" />
    <path
       d="m 250.09345,968.37974 a 6,6 0 1 0 -12,0 6,6 0 1 0 12,0 z"
       style="fill:none;stroke:#000000;stroke-width:0.60000002;stroke-linecap:round"
       id="path4965"
       inkscape:connector-curvature="0" />
    <path
       d="M 91.936387,894.19914 A 110.32663,110.32663 0 0 0 239.87997,882.01671"
       style="fill:none;stroke:#000000;stroke-width:0.60000002;stroke-linecap:round"
       id="path4967"
       inkscape:connector-curvature="0" />
    <path
       d="m 256.40923,891.83988 a 6,6 0 1 0 -12,0 6,6 0 1 0 12,0 z"
       style="fill:none;stroke:#000000;stroke-width:0.60000002;stroke-linecap:round"
       id="path4969"
       inkscape:connector-curvature="0" />
    <path
       d="m 79.347815,891.83988 a 11.338583,11.338583 0 1 0 -22.677166,0 11.338583,11.338583 0 1 0 22.677166,0 z"
       style="fill:none;stroke:#000000;stroke-width:0.60000002;stroke-linecap:round"
       id="path4971"
       inkscape:connector-curvature="0" />
    <path
       d="M 264.76046,893.02409 A 14.4,14.4 0 0 0 239.87997,882.01671"
       style="fill:none;stroke:#000000;stroke-width:0.60000002;stroke-linecap:round"
       id="path4973"
       inkscape:connector-curvature="0" />
    <path
       d="m 264.76046,893.02409 -6.31579,76.53986"
       style="fill:none;stroke:#000000;stroke-width:0.60000002;stroke-linecap:round"
       id="path4975"
       inkscape:connector-curvature="0" />
    <path
       d="m 229.74222,967.19553 a 14.4,14.4 0 1 0 28.70245,2.36842"
       style="fill:none;stroke:#000000;stroke-width:0.60000002;stroke-linecap:round"
       id="path4977"
       inkscape:connector-curvature="0" />
    <path
       d="m 231.79992,942.25867 -2.0577,24.93686"
       style="fill:none;stroke:#000000;stroke-width:0.60000002;stroke-linecap:round"
       id="path4979"
       inkscape:connector-curvature="0" />
    <path
       d="m 71.19843,914.50703 a 139.12663,139.12663 0 0 0 146.96599,18.26669"
       style="fill:none;stroke:#000000;stroke-width:0.60000002;stroke-linecap:round"
       id="path4981"
       inkscape:connector-curvature="0" />
    <path
       d="M 88.335857,888.25685 A 20.64,20.64 0 1 0 66.040983,912.38582"
       style="fill:none;stroke:#000000;stroke-width:0.60000002;stroke-linecap:round"
       id="path4983"
       inkscape:connector-curvature="0" />
    <path
       d="m 72.130073,1052.8515 a 19.2,19.2 0 0 0 -12.618861,2.1458"
       style="fill:none;stroke:#000000;stroke-width:0.60000002;stroke-linecap:round"
       id="path4985"
       inkscape:connector-curvature="0" />
    <path
       d="m 65.878967,1018.2111 a 24,24 0 1 0 -6.367755,36.7862"
       style="fill:none;stroke:#000000;stroke-width:0.60000002;stroke-linecap:round"
       id="path4987"
       inkscape:connector-curvature="0" />
    <path
       d="m 65.878967,1018.2111 a 19.2,19.2 0 0 0 11.163374,6.2625"
       style="fill:none;stroke:#000000;stroke-width:0.60000002;stroke-linecap:round"
       id="path4989"
       inkscape:connector-curvature="0" />
    <path
       d="m 53.500485,1034.0312 a 5.6692915,5.6692915 0 1 0 -11.338583,0 5.6692915,5.6692915 0 1 0 11.338583,0 z"
       style="fill:none;stroke:#000000;stroke-width:0.60000002;stroke-linecap:round"
       id="path4991"
       inkscape:connector-curvature="0" />
    <path
       d="M 270.05558,1047.0165 A 14.4,14.4 0 0 0 257.60681,1021.046"
       style="fill:none;stroke:#000000;stroke-width:0.60000002;stroke-linecap:round"
       id="path4993"
       inkscape:connector-curvature="0" />
    <path
       d="m 142.87994,1049.5029 a 5.6692915,5.6692915 0 1 0 -11.33858,0 5.6692915,5.6692915 0 1 0 11.33858,0 z"
       style="fill:none;stroke:#000000;stroke-width:0.60000002;stroke-linecap:round"
       id="path4995"
       inkscape:connector-curvature="0" />
    <path
       d="m 269.8312,1034.0312 a 6,6 0 1 0 -12,0 6,6 0 1 0 12,0 z"
       style="fill:none;stroke:#000000;stroke-width:0.60000002;stroke-linecap:round"
       id="path4997"
       inkscape:connector-curvature="0" />
    <path
       d="m 127.98337,1046.9243 a 5.6692915,5.6692915 0 1 0 -11.33858,0 5.6692915,5.6692915 0 1 0 11.33858,0 z"
       style="fill:none;stroke:#000000;stroke-width:0.60000002;stroke-linecap:round"
       id="path4999"
       inkscape:connector-curvature="0" />
    <path
       d="m 147.82065,1065.9463 a 213.88721,213.88721 0 0 0 122.23493,-18.9298"
       style="fill:none;stroke:#000000;stroke-width:0.60000002;stroke-linecap:round"
       id="path5001"
       inkscape:connector-curvature="0" />
    <path
       d="m 147.36962,1065.8756 a 14.4,14.4 0 0 0 0.45103,0.071"
       style="fill:none;stroke:#000000;stroke-width:0.60000002;stroke-linecap:round"
       id="path5003"
       inkscape:connector-curvature="0" />
    <path
       d="m 152.05272,1037.458 a 185.08721,185.08721 0 0 0 105.55409,-16.412"
       style="fill:none;stroke:#000000;stroke-width:0.60000002;stroke-linecap:round"
       id="path5005"
       inkscape:connector-curvature="0" />
    <path
       d="M 147.36962,1065.8756 72.130073,1052.8515"
       style="fill:none;stroke:#000000;stroke-width:0.60000002;stroke-linecap:round"
       id="path5007"
       inkscape:connector-curvature="0" />
    <path
       d="M 152.05272,1037.458 77.042341,1024.4736"
       style="fill:none;stroke:#000000;stroke-width:0.60000002;stroke-linecap:round"
       id="path5009"
       inkscape:connector-curvature="0" />
    <path
       d="m 237.61765,1000.418 a 6,6 0 1 0 -12,0 6,6 0 1 0 12,0 z"
       style="fill:none;stroke:#000000;stroke-width:0.60000002;stroke-linecap:round"
       id="path5011"
       inkscape:connector-curvature="0" />
    <path
       d="M 231.61765,986.01802 H 73.217648"
       style="fill:none;stroke:#000000;stroke-width:0.60000002;stroke-linecap:round"
       id="path5013"
       inkscape:connector-curvature="0" />
    <path
       d="m 231.61765,1014.818 a 14.4,14.4 0 0 0 0,-28.79998"
       style="fill:none;stroke:#000000;stroke-width:0.60000002;stroke-linecap:round"
       id="path5015"
       inkscape:connector-curvature="0" />
    <path
       d="M 73.217648,1014.818 H 231.61765"
       style="fill:none;stroke:#000000;stroke-width:0.60000002;stroke-linecap:round"
       id="path5017"
       inkscape:connector-curvature="0" />
    <path
       d="m 73.217648,986.01802 a 14.4,14.4 0 0 0 0,28.79998"
       style="fill:none;stroke:#000000;stroke-width:0.60000002;stroke-linecap:round"
       id="path5019"
       inkscape:connector-curvature="0" />
    <path
       d="m 79.217648,1000.418 a 6,6 0 1 0 -12,0 6,6 0 1 0 12,0 z"
       style="fill:none;stroke:#000000;stroke-width:0.60000002;stroke-linecap:round"
       id="path5021"
       inkscape:connector-curvature="0" />
    <path
       d="m 97.199997,964.6378 a 6,6 0 1 0 -12,0 6,6 0 1 0 12,0 z"
       style="fill:none;stroke:#000000;stroke-width:0.60000002;stroke-linecap:round"
       id="path5023"
       inkscape:connector-curvature="0" />
    <path
       d="M 206.4,950.2378 H 14.4"
       style="fill:none;stroke:#000000;stroke-width:0.60000002;stroke-linecap:round"
       id="path5025"
       inkscape:connector-curvature="0" />
    <path
       d="m 206.4,979.0378 a 14.4,14.4 0 0 0 0,-28.8"
       style="fill:none;stroke:#000000;stroke-width:0.60000002;stroke-linecap:round"
       id="path5027"
       inkscape:connector-curvature="0" />
    <path
       d="m 14.4,979.0378 h 192"
       style="fill:none;stroke:#000000;stroke-width:0.60000002;stroke-linecap:round"
       id="path5029"
       inkscape:connector-curvature="0" />
    <path
       d="m 14.4,950.2378 a 14.4,14.4 0 0 0 0,28.8"
       style="fill:none;stroke:#000000;stroke-width:0.60000002;stroke-linecap:round"
       id="path5031"
       inkscape:connector-curvature="0" />
    <path
       d="m 20.4,964.6378 a 6.0000001,6.0000002 0 1 0 -12.0000003,0 6.0000001,6.0000002 0 1 0 12.0000003,0 z"
       style="fill:none;stroke:#000000;stroke-width:0.60000002;stroke-linecap:round"
       id="path5033"
       inkscape:connector-curvature="0" />
    <path
       d="m 326.20238,895.23266 a 5.6692915,5.6692915 0 1 0 -11.33858,0 5.6692915,5.6692915 0 1 0 11.33858,0 z"
       style="fill:none;stroke:#000000;stroke-width:0.60000002;stroke-linecap:round"
       id="path5035"
       inkscape:connector-curvature="0" />
    <path
       d="m 470.53309,895.23266 a 6,6 0 1 0 -12,0 6,6 0 1 0 12,0 z"
       style="fill:none;stroke:#000000;stroke-width:0.60000002;stroke-linecap:round"
       id="path5037"
       inkscape:connector-curvature="0" />
    <path
       d="m 464.53309,909.63266 a 14.4,14.4 0 0 0 0,-28.8"
       style="fill:none;stroke:#000000;stroke-width:0.60000002;stroke-linecap:round"
       id="path5039"
       inkscape:connector-curvature="0" />
    <path
       d="m 356.453,909.63266 a 48,48 0 0 0 -23.94661,6.4"
       style="fill:none;stroke:#000000;stroke-width:0.60000002;stroke-linecap:round"
       id="path5041"
       inkscape:connector-curvature="0" />
    <path
       d="m 332.50639,874.43266 a 24,24 0 1 0 0,41.6"
       style="fill:none;stroke:#000000;stroke-width:0.60000002;stroke-linecap:round"
       id="path5043"
       inkscape:connector-curvature="0" />
    <path
       d="m 332.50639,874.43266 a 48,48 0 0 0 23.94661,6.4"
       style="fill:none;stroke:#000000;stroke-width:0.60000002;stroke-linecap:round"
       id="path5045"
       inkscape:connector-curvature="0" />
    <path
       d="m 401.79293,895.23266 a 5.6692915,5.6692915 0 1 0 -11.33858,0 5.6692915,5.6692915 0 1 0 11.33858,0 z"
       style="fill:none;stroke:#000000;stroke-width:0.60000002;stroke-linecap:round"
       id="path5047"
       inkscape:connector-curvature="0" />
    <path
       d="m 416.91104,895.23266 a 5.669291,5.669291 0 1 0 -11.33858,0 5.669291,5.669291 0 1 0 11.33858,0 z"
       style="fill:none;stroke:#000000;stroke-width:0.60000002;stroke-linecap:round"
       id="path5049"
       inkscape:connector-curvature="0" />
    <path
       d="M 464.53309,880.83266 H 356.453"
       style="fill:none;stroke:#000000;stroke-width:0.60000002;stroke-linecap:round"
       id="path5051"
       inkscape:connector-curvature="0" />
    <path
       d="M 356.453,909.63266 H 464.53309"
       style="fill:none;stroke:#000000;stroke-width:0.60000002;stroke-linecap:round"
       id="path5053"
       inkscape:connector-curvature="0" />
    <path
       d="m 479.48894,980.31328 a 6,6 0 1 0 -12,0 6,6 0 1 0 12,0 z"
       style="fill:none;stroke:#000000;stroke-width:0.60000002;stroke-linecap:round"
       id="path5055"
       inkscape:connector-curvature="0" />
    <path
       d="m 473.48894,965.91328 h -148.8"
       style="fill:none;stroke:#000000;stroke-width:0.60000002;stroke-linecap:round"
       id="path5057"
       inkscape:connector-curvature="0" />
    <path
       d="m 473.48894,994.71328 a 14.4,14.4 0 0 0 0,-28.8"
       style="fill:none;stroke:#000000;stroke-width:0.60000002;stroke-linecap:round"
       id="path5059"
       inkscape:connector-curvature="0" />
    <path
       d="m 324.68894,994.71328 h 148.8"
       style="fill:none;stroke:#000000;stroke-width:0.60000002;stroke-linecap:round"
       id="path5061"
       inkscape:connector-curvature="0" />
    <path
       d="m 324.68894,965.91328 a 14.4,14.4 0 0 0 0,28.8"
       style="fill:none;stroke:#000000;stroke-width:0.60000002;stroke-linecap:round"
       id="path5063"
       inkscape:connector-curvature="0" />
    <path
       d="m 330.68894,980.31328 a 6,6 0 1 0 -12,0 6,6 0 1 0 12,0 z"
       style="fill:none;stroke:#000000;stroke-width:0.60000002;stroke-linecap:round"
       id="path5065"
       inkscape:connector-curvature="0" />
    <path
       d="m 500.4695,1075.7281 a 9.6,9.6 0 0 0 -16.7386,-1.5558"
       style="fill:none;stroke:#000000;stroke-width:0.60000002;stroke-linecap:round"
       id="path5067"
       inkscape:connector-curvature="0" />
    <path
       d="m 283.64198,1030.9733 a 9.6,9.6 0 0 0 -2.39955,-4.8663"
       style="fill:none;stroke:#000000;stroke-width:0.60000002;stroke-linecap:round"
       id="path5069"
       inkscape:connector-curvature="0" />
    <path
       d="m 314.00434,1022.9275 a 9.6,9.6 0 0 0 -1.18629,7.1381"
       style="fill:none;stroke:#000000;stroke-width:0.60000002;stroke-linecap:round"
       id="path5071"
       inkscape:connector-curvature="0" />
    <path
       d="m 528.98021,1091.3066 a 6,6 0 1 0 -12,0 6,6 0 1 0 12,0 z"
       style="fill:none;stroke:#000000;stroke-width:0.60000002;stroke-linecap:round"
       id="path5073"
       inkscape:connector-curvature="0" />
    <path
       d="m 312.81805,1030.0656 a 81.6,81.6 0 0 0 161.20216,-17.9459"
       style="fill:none;stroke:#000000;stroke-width:0.60000002;stroke-linecap:round"
       id="path5075"
       inkscape:connector-curvature="0" />
    <path
       d="m 494.42021,1012.1197 a 6,6 0 1 0 -12,0 6,6 0 1 0 12,0 z"
       style="fill:none;stroke:#000000;stroke-width:0.60000002;stroke-linecap:round"
       id="path5077"
       inkscape:connector-curvature="0" />
    <path
       d="m 307.75879,1012.1197 a 11.338585,11.338585 0 1 0 -22.67717,0 11.338585,11.338585 0 1 0 22.67717,0 z"
       style="fill:none;stroke:#000000;stroke-width:0.60000002;stroke-linecap:round"
       id="path5079"
       inkscape:connector-curvature="0" />
    <path
       d="m 501.61802,1006.3597 a 14.4,14.4 0 0 0 -27.59781,5.76"
       style="fill:none;stroke:#000000;stroke-width:0.60000002;stroke-linecap:round"
       id="path5081"
       inkscape:connector-curvature="0" />
    <path
       d="m 501.61802,1006.3597 34.56,79.1869"
       style="fill:none;stroke:#000000;stroke-width:0.60000002;stroke-linecap:round"
       id="path5083"
       inkscape:connector-curvature="0" />
    <path
       d="m 509.78239,1097.0666 a 14.4,14.4 0 1 0 26.39563,-11.52"
       style="fill:none;stroke:#000000;stroke-width:0.60000002;stroke-linecap:round"
       id="path5085"
       inkscape:connector-curvature="0" />
    <path
       d="m 500.4695,1075.7281 9.31289,21.3385"
       style="fill:none;stroke:#000000;stroke-width:0.60000002;stroke-linecap:round"
       id="path5087"
       inkscape:connector-curvature="0" />
    <path
       d="m 283.64198,1030.9733 a 110.4,110.4 0 0 0 200.08892,43.199"
       style="fill:none;stroke:#000000;stroke-width:0.60000002;stroke-linecap:round"
       id="path5089"
       inkscape:connector-curvature="0" />
    <path
       d="m 314.00434,1022.9275 a 20.64,20.64 0 1 0 -32.76191,3.1795"
       style="fill:none;stroke:#000000;stroke-width:0.60000002;stroke-linecap:round"
       id="path5091"
       inkscape:connector-curvature="0" />
    <path
       d="m 398.52221,940.01194 a 6,6 0 1 0 -12,0 6,6 0 1 0 12,0 z"
       style="fill:none;stroke:#000000;stroke-width:0.60000002;stroke-linecap:round"
       id="path5093"
       inkscape:connector-curvature="0" />
    <path
       d="m 522.12221,925.61194 h -216"
       style="fill:none;stroke:#000000;stroke-width:0.60000002;stroke-linecap:round"
       id="path5095"
       inkscape:connector-curvature="0" />
    <path
       d="m 522.12221,954.41194 a 14.4,14.4 0 0 0 0,-28.8"
       style="fill:none;stroke:#000000;stroke-width:0.60000002;stroke-linecap:round"
       id="path5097"
       inkscape:connector-curvature="0" />
    <path
       d="m 306.12221,954.41194 h 216"
       style="fill:none;stroke:#000000;stroke-width:0.60000002;stroke-linecap:round"
       id="path5099"
       inkscape:connector-curvature="0" />
    <path
       d="m 306.12221,925.61194 a 14.4,14.4 0 0 0 0,28.8"
       style="fill:none;stroke:#000000;stroke-width:0.60000002;stroke-linecap:round"
       id="path5101"
       inkscape:connector-curvature="0" />
    <path
       d="m 312.12221,940.01194 a 6,6 0 1 0 -12,0 6,6 0 1 0 12,0 z"
       style="fill:none;stroke:#000000;stroke-width:0.60000002;stroke-linecap:round"
       id="path5103"
       inkscape:connector-curvature="0" />
  </g>
</svg>
