<?xml version="1.0" encoding="UTF-8" standalone="no"?>
<svg
   xmlns:dc="http://purl.org/dc/elements/1.1/"
   xmlns:cc="http://creativecommons.org/ns#"
   xmlns:rdf="http://www.w3.org/1999/02/22-rdf-syntax-ns#"
   xmlns:svg="http://www.w3.org/2000/svg"
   xmlns="http://www.w3.org/2000/svg"
   xmlns:sodipodi="http://sodipodi.sourceforge.net/DTD/sodipodi-0.dtd"
   xmlns:inkscape="http://www.inkscape.org/namespaces/inkscape"
   width="1220mm"
   height="610mm"
   version="1.1"
   id="svg5107"
   sodipodi:docname="linkage2.svg"
   inkscape:version="0.92.3 (2405546, 2018-03-11)">
  <metadata
     id="metadata5111">
    <rdf:RDF>
      <cc:Work
         rdf:about="">
        <dc:format>image/svg+xml</dc:format>
        <dc:type
           rdf:resource="http://purl.org/dc/dcmitype/StillImage" />
        <dc:title />
      </cc:Work>
    </rdf:RDF>
  </metadata>
  <sodipodi:namedview
     pagecolor="#ffffff"
     bordercolor="#666666"
     borderopacity="1"
     objecttolerance="10"
     gridtolerance="10"
     guidetolerance="10"
     inkscape:pageopacity="0"
     inkscape:pageshadow="2"
     inkscape:window-width="1600"
     inkscape:window-height="832"
     id="namedview5109"
     showgrid="false"
     inkscape:document-units="mm"
     units="mm"
     inkscape:zoom="4.6935346"
     inkscape:cx="109.85941"
     inkscape:cy="14.397372"
     inkscape:window-x="0"
     inkscape:window-y="0"
     inkscape:window-maximized="1"
     inkscape:current-layer="g5105" />
  <desc
     id="desc4942">/home/torsten/projects/Exceptionally-Useless-Box/Laser Cutting Files/Linkage Laser Cut Layout.DXF - scale = 25.400000, origin = (0.000000, 0.000000), method = file</desc>
  <defs
     id="defs4957">
    <marker
       id="DistanceX"
       orient="auto"
       refX="0"
       refY="0"
       style="overflow:visible">
      <path
         d="M 3,-3 -3,3 M 0,-5 V 5"
         style="stroke:#000000;stroke-width:0.5"
         id="path4944"
         inkscape:connector-curvature="0" />
    </marker>
    <pattern
       height="8"
       id="Hatch"
       patternUnits="userSpaceOnUse"
       width="8"
       x="0"
       y="0">
      <path
         d="M8 4 l-4,4"
         linecap="square"
         stroke="#000000"
         stroke-width="0.25"
         id="path4947" />
      <path
         d="M6 2 l-4,4"
         linecap="square"
         stroke="#000000"
         stroke-width="0.25"
         id="path4949" />
      <path
         d="M4 0 l-4,4"
         linecap="square"
         stroke="#000000"
         stroke-width="0.25"
         id="path4951" />
    </pattern>
    <symbol
       id="*Model_Space" />
    <symbol
       id="*Paper_Space" />
    <symbol
       id="*Paper_Space0" />
  </defs>
  <g
     inkscape:groupmode="layer"
     inkscape:label="0"
     id="g5105"
     transform="translate(0,1182.992)"
     style="display:inline">
    <path
       id="path908"
       style="display:inline;fill:none;stroke:#000000;stroke-width:1px;stroke-linecap:butt;stroke-linejoin:miter;stroke-opacity:1"
       d="m 96.595544,1108.1198 a 6,6 0 1 0 -12,0 6,6 0 1 0 12,0 z m -76.799997,0 a 6.0000004,6.0000005 0 1 0 -12.0000007,0 6.0000003,6.0000005 0 1 0 12.0000007,0 z m -6,-14.4 c 64.000001,0 128.000003,0 192.000003,0 6.17028,-0.5177 10.4771,3.6488 12.97036,9.3285 2.26908,5.9387 -0.22807,13.119 -5.2006,16.8471 -3.81316,1.7607 -7.8871,3.0663 -12.10758,2.3979 -62.55406,0.075 -125.108123,0.151 -187.662183,0.2265 -3.411448,-0.5771 -6.709307,-1.3956 -9.1663163,-4.0006 -2.5377199,-2.1748 -4.21223845,-5.0138 -4.31771477,-8.4106 -0.41228894,-2.9957 -0.10171711,-6.2774 0.81938727,-9.142 2.1196593,-4.8988 7.649894,-6.9964 12.6646438,-7.2468 z" />
  </g>
  <g
     inkscape:groupmode="layer"
     id="layer1"
     inkscape:label="1"
     style="display:inline" />
</svg>
