<?xml version="1.0" encoding="UTF-8" standalone="no"?>
<svg
   xmlns:dc="http://purl.org/dc/elements/1.1/"
   xmlns:cc="http://creativecommons.org/ns#"
   xmlns:rdf="http://www.w3.org/1999/02/22-rdf-syntax-ns#"
   xmlns:svg="http://www.w3.org/2000/svg"
   xmlns="http://www.w3.org/2000/svg"
   xmlns:sodipodi="http://sodipodi.sourceforge.net/DTD/sodipodi-0.dtd"
   xmlns:inkscape="http://www.inkscape.org/namespaces/inkscape"
   width="1220mm"
   height="610mm"
   version="1.1"
   id="svg5107"
   sodipodi:docname="linkage8.svg"
   inkscape:version="0.92.3 (2405546, 2018-03-11)">
  <metadata
     id="metadata5111">
    <rdf:RDF>
      <cc:Work
         rdf:about="">
        <dc:format>image/svg+xml</dc:format>
        <dc:type
           rdf:resource="http://purl.org/dc/dcmitype/StillImage" />
        <dc:title />
      </cc:Work>
    </rdf:RDF>
  </metadata>
  <sodipodi:namedview
     pagecolor="#ffffff"
     bordercolor="#666666"
     borderopacity="1"
     objecttolerance="10"
     gridtolerance="10"
     guidetolerance="10"
     inkscape:pageopacity="0"
     inkscape:pageshadow="2"
     inkscape:window-width="1600"
     inkscape:window-height="832"
     id="namedview5109"
     showgrid="false"
     inkscape:document-units="mm"
     units="mm"
     inkscape:zoom="3.9505133"
     inkscape:cx="130.87179"
     inkscape:cy="65.75871"
     inkscape:window-x="0"
     inkscape:window-y="0"
     inkscape:window-maximized="1"
     inkscape:current-layer="g5105" />
  <desc
     id="desc4942">/home/torsten/projects/Exceptionally-Useless-Box/Laser Cutting Files/Linkage Laser Cut Layout.DXF - scale = 25.400000, origin = (0.000000, 0.000000), method = file</desc>
  <defs
     id="defs4957">
    <marker
       id="DistanceX"
       orient="auto"
       refX="0"
       refY="0"
       style="overflow:visible">
      <path
         d="M 3,-3 -3,3 M 0,-5 V 5"
         style="stroke:#000000;stroke-width:0.5"
         id="path4944"
         inkscape:connector-curvature="0" />
    </marker>
    <pattern
       height="8"
       id="Hatch"
       patternUnits="userSpaceOnUse"
       width="8"
       x="0"
       y="0">
      <path
         d="M8 4 l-4,4"
         linecap="square"
         stroke="#000000"
         stroke-width="0.25"
         id="path4947" />
      <path
         d="M6 2 l-4,4"
         linecap="square"
         stroke="#000000"
         stroke-width="0.25"
         id="path4949" />
      <path
         d="M4 0 l-4,4"
         linecap="square"
         stroke="#000000"
         stroke-width="0.25"
         id="path4951" />
    </pattern>
    <symbol
       id="*Model_Space" />
    <symbol
       id="*Paper_Space" />
    <symbol
       id="*Paper_Space0" />
  </defs>
  <g
     inkscape:groupmode="layer"
     inkscape:label="0"
     id="g5105"
     transform="translate(0,1182.992)">
    <path
       id="path873"
       style="display:inline;fill:none;stroke:#000000;stroke-width:1px;stroke-linecap:butt;stroke-linejoin:miter;stroke-opacity:1"
       d="m 16.128084,991.5819 c 11.60035,-2.592 18.81059,3.9586 22.32911,10.1821 3.47246,6.1421 2.93499,14.6732 -0.38951,21.1635 -1.09963,2.1468 -1.67588,4.7763 -1.18629,7.1381 3.84982,18.5716 15.30825,36.956 30.87159,47.796 25.15541,17.521 54.876976,22.7728 90.388226,3.9299 23.64693,-12.5475 38.77711,-40.9208 39.94234,-69.6718 0.22793,-5.624 1.20648,-10.7937 9.00307,-14.2856 8.33982,-3.7352 15.8713,2.2744 18.59474,8.5256 13.3558,30.656 22.49101,53.5693 34.56,79.1869 4.24345,9.0072 -1.19329,15.4555 -7.06746,18.3954 -8.23352,4.1207 -15.77028,-1.0357 -19.32817,-6.8754 -4.91782,-8.0718 -5.2973,-14.5179 -9.31289,-21.3385 -2.84296,-4.8288 -10.68705,-8.9785 -16.7386,-1.5558 -18.50423,22.6968 -39.03593,48.3455 -92.52492,48.3475 -48.814526,0 -99.169526,-34.2209 -107.5639961,-91.5465 -0.26204,-1.7895 -1.07899,-3.6305 -2.39955,-4.8663 -6.83681,-6.3978 -10.43898,-29.7744 10.8223101,-34.5251 z m 15.69405,20.5378 a 11.338585,11.338585 0 1 0 -22.6771701,0 11.338585,11.338585 0 1 0 22.6771701,0 z m 186.661416,0 a 6,6 0 1 0 -12,0 6,6 0 1 0 12,0 z m 34.56,79.1869 a 6,6 0 1 0 -12,0 6,6 0 1 0 12,0 z"
       inkscape:connector-curvature="0" />
  </g>
</svg>
