<?xml version="1.0" encoding="UTF-8" standalone="no"?>
<!-- Created with Inkscape (http://www.inkscape.org/) -->

<svg
   xmlns:dc="http://purl.org/dc/elements/1.1/"
   xmlns:cc="http://creativecommons.org/ns#"
   xmlns:rdf="http://www.w3.org/1999/02/22-rdf-syntax-ns#"
   xmlns:svg="http://www.w3.org/2000/svg"
   xmlns="http://www.w3.org/2000/svg"
   xmlns:sodipodi="http://sodipodi.sourceforge.net/DTD/sodipodi-0.dtd"
   xmlns:inkscape="http://www.inkscape.org/namespaces/inkscape"
   width="1220mm"
   height="610mm"
   viewBox="0 0 1220 610"
   version="1.1"
   id="svg2589"
   inkscape:version="0.92.3 (2405546, 2018-03-11)"
   sodipodi:docname="servomount.svg">
  <defs
     id="defs2583" />
  <sodipodi:namedview
     id="base"
     pagecolor="#ffffff"
     bordercolor="#666666"
     borderopacity="1.0"
     inkscape:pageopacity="0.0"
     inkscape:pageshadow="2"
     inkscape:zoom="0.82078601"
     inkscape:cx="340.55446"
     inkscape:cy="390.17945"
     inkscape:document-units="mm"
     inkscape:current-layer="layer1"
     showgrid="false"
     inkscape:window-width="1600"
     inkscape:window-height="832"
     inkscape:window-x="0"
     inkscape:window-y="0"
     inkscape:window-maximized="1" />
  <metadata
     id="metadata2586">
    <rdf:RDF>
      <cc:Work
         rdf:about="">
        <dc:format>image/svg+xml</dc:format>
        <dc:type
           rdf:resource="http://purl.org/dc/dcmitype/StillImage" />
        <dc:title />
      </cc:Work>
    </rdf:RDF>
  </metadata>
  <g
     inkscape:label="Layer 1"
     inkscape:groupmode="layer"
     id="layer1"
     transform="translate(0,313)">
    <g
       id="g1047">
      <path
         id="path1035"
         d="m 171.76494,194.36556 a 3.0000006,3.0000006 0 1 0 -6,0 3.0000006,3.0000006 0 1 0 6,0 z"
         style="fill:none;stroke:#000000;stroke-width:0.15875;stroke-linecap:round" />
      <path
         d="m 127.48994,237.31556 h 16.51 m -16.51,0 a 1.5,1.5 0 0 0 0,3 m 0,0 h 16.51 m 0,0 a 1.5,1.5 0 0 0 0,-3"
         style="fill:none;stroke:#000000;stroke-width:0.15875;stroke-linecap:round"
         id="path1027" />
      <path
         d="m 127.48994,199.21556 h 16.51 m -16.51,0 a 1.5,1.5 0 0 0 0,3 m 0,0 h 16.51 m 0,0 a 1.5,1.5 0 0 0 0,-3"
         style="fill:none;stroke:#000000;stroke-width:0.15875;stroke-linecap:round"
         id="path1019" />
      <path
         d="m 170.03494,207.82756 a 0.76199999,0.76199999 0 0 0 -0.762,-0.762 m -67.056,0 h 67.056 m -67.056,0 a 0.76199999,0.76199999 0 0 0 -0.762,0.762 m 0,23.876 v -23.876 m 0,23.876 a 0.76199999,0.76199999 0 0 0 0.762,0.762 m 0,0 h 67.056 m 0,0 a 0.76199999,0.76199999 0 0 0 0.762,-0.762 m 0,0 v -23.876"
         style="fill:none;stroke:#000000;stroke-width:0.15875;stroke-linecap:round"
         id="path1003" />
      <path
         d="m 173.84494,272.77056 h 6.35 m -6.35,3.175 v -3.175 m -6.35,3.175 h 6.35 m -6.35,-3.175 v 3.175 m -6.35,-3.175 h 6.35 m -6.35,3.175 v -3.175 m -6.35,3.175 h 6.35 m -6.35,-6.35 v 6.35 m -6.35,-6.35 h 6.35 m -6.35,6.35 v -6.35 m -6.35,6.35 h 6.35 m -6.35,-3.175 v 3.175 m -6.35,-3.175 h 6.35 m -6.35,3.175 v -3.175 m -6.35,3.175 h 6.35 m -6.35,-3.175 v 3.175 m -6.35,-3.175 h 6.35 m -6.35,3.175 v -3.175 m -6.35,3.175 h 6.35 m -6.35,-6.35 v 6.35 m -6.35,-6.35 h 6.35 m -6.35,6.35 v -6.35 m -6.35,6.35 h 6.35 m -6.35,-3.175 v 3.175 m -6.349997,-3.175 h 6.349997 m -6.349997,3.175 v -3.175 m -6.35,3.175 h 6.35 m -6.35,0 v -85.055 m 6.35,-6.35 a 6.3499999,6.3499999 0 0 0 -6.35,6.35 m 6.35,-6.35 h 76.199997 m 6.35,6.35 a 6.3499999,6.3499999 0 0 0 -6.35,-6.35 m 6.35,88.23 v -81.88"
         style="fill:none;stroke:#000000;stroke-width:0.15875;stroke-linecap:round"
         id="path5819" />
    </g>
    <g
       id="g937">
      <path
         id="path921"
         d="m 73.376394,205.09356 a 3.0000006,3.0000006 0 1 0 -6.000001,0 3.0000006,3.0000006 0 1 0 6.000001,0 z"
         style="fill:none;stroke:#000000;stroke-width:0.15875;stroke-linecap:round" />
      <path
         id="path917"
         d="m 78.504392,243.19355 a 0.76199999,0.76199999 0 0 0 0.762,-0.762"
         style="fill:none;stroke:#000000;stroke-width:0.15875;stroke-linecap:round" />
      <path
         id="path913"
         d="m 10.686394,242.43155 a 0.76199999,0.76199999 0 0 0 0.762,0.762"
         style="fill:none;stroke:#000000;stroke-width:0.15875;stroke-linecap:round" />
      <path
         id="path909"
         d="m 11.448394,217.79356 a 0.76199999,0.76199999 0 0 0 -0.762,0.762"
         style="fill:none;stroke:#000000;stroke-width:0.15875;stroke-linecap:round" />
      <path
         d="m 11.448394,217.79356 h 67.055998 m -67.817998,24.63799 v -23.87599 m 0.762,24.63799 h 67.055998 m 0.762,-0.762 v -23.87599"
         style="fill:none;stroke:#000000;stroke-width:0.15875;stroke-linecap:round"
         id="path907" />
      <path
         id="path905"
         d="m 79.266392,218.55556 a 0.76199999,0.76199999 0 0 0 -0.762,-0.762"
         style="fill:none;stroke:#000000;stroke-width:0.15875;stroke-linecap:round" />
      <path
         d="m 36.721393,209.94356 h 16.509999 m -16.509999,0 a 1.5,1.5 0 0 0 0,2.99999 m 0,0 h 16.509999 m 0,0 a 1.5,1.5 0 0 0 0,-2.99999"
         style="fill:none;stroke:#000000;stroke-width:0.15875;stroke-linecap:round"
         id="path897" />
      <path
         d="m 36.721393,248.04356 h 16.509999 m -16.509999,0 a 1.5,1.5 0 0 0 0,2.99999 m 0,0 h 16.509999 m 0,0 a 1.5,1.5 0 0 0 0,-2.99999"
         style="fill:none;stroke:#000000;stroke-width:0.15875;stroke-linecap:round"
         id="path889" />
      <path
         d="m 83.076392,272.06855 h 6.35 m -6.35,3.175 v -3.175 m -6.35,3.175 h 6.35 m -6.35,-3.175 v 3.175 m -6.35,-3.175 h 6.35 m -6.35,3.175 v -3.175 m -6.35,3.175 h 6.35 m -6.35,-6.34999 v 6.34999 m -6.35,-6.34999 h 6.35 m -6.35,6.34999 v -6.34999 m -6.35,6.34999 h 6.35 m -6.35,-3.175 v 3.175 m -6.35,-3.175 h 6.35 m -6.35,3.175 v -3.175 m -6.349999,3.175 h 6.349999 m -6.349999,-3.175 v 3.175 m -6.35,-3.175 h 6.35 m -6.35,3.175 v -3.175 m -6.349998,3.175 h 6.349998 m -6.349998,-6.34999 v 6.34999 m -6.350001,-6.34999 h 6.350001 m -6.350001,6.34999 v -6.34999 m -6.35,6.34999 h 6.35 m -6.35,-3.175 v 3.175 m -6.3499997,-3.175 h 6.3499997 m -6.3499997,3.175 v -3.175 m -6.34999993,3.175 H 6.8763943 m -6.34999993,0 v -73.625 m 6.34999993,-6.34999 a 6.3499999,6.3499999 0 0 0 -6.34999993,6.34999 M 6.8763943,195.26856 H 83.076392 m 6.35,6.34999 a 6.3499999,6.3499999 0 0 0 -6.35,-6.34999 m 6.35,76.79999 v -70.45"
         style="fill:none;stroke:#000000;stroke-width:0.15875;stroke-linecap:round"
         id="path5917" />
    </g>
    <path
       id="path1129"
       style="fill:none;stroke:#000000;stroke-width:0.15875;stroke-linecap:round"
       d="m 153.13619,293.18997 v -11.42999 m 0,0 a 1.5000009,1.5000009 0 0 0 -3,0 m 0,0 v 11.42999 m 0,0 a 1.5000009,1.5000009 0 0 0 3,0" />
    <path
       id="path1121"
       style="fill:none;stroke:#000000;stroke-width:0.15875;stroke-linecap:round"
       d="m 173.86119,284.29998 h -6.35 m 0,0 v 3.175 m 0,0 h 6.35 m 0,0 v -3.175" />
    <path
       id="path1113"
       style="fill:none;stroke:#000000;stroke-width:0.15875;stroke-linecap:round"
       d="m 161.16119,284.29998 h -6.35 m 0,0 v 3.175 m 0,0 h 6.35 m 0,0 v -3.175" />
    <path
       id="path1105"
       style="fill:none;stroke:#000000;stroke-width:0.15875;stroke-linecap:round"
       d="m 148.46119,284.29998 h -6.35 m 0,0 v 3.175 m 0,0 h 6.35 m 0,0 v -3.175" />
    <path
       id="path1097"
       style="fill:none;stroke:#000000;stroke-width:0.15875;stroke-linecap:round"
       d="m 135.76119,284.29998 h -6.35 m 0,0 v 3.175 m 0,0 h 6.35 m 0,0 v -3.175" />
    <path
       id="path1089"
       style="fill:none;stroke:#000000;stroke-width:0.15875;stroke-linecap:round"
       d="m 123.06119,284.29998 h -6.35 m 0,0 v 3.175 m 0,0 h 6.35 m 0,0 v -3.175" />
    <path
       id="path1081"
       style="fill:none;stroke:#000000;stroke-width:0.15875;stroke-linecap:round"
       d="m 110.36119,284.29998 h -6.35 m 0,0 v 3.175 m 0,0 h 6.35 m 0,0 v -3.175" />
    <path
       id="path1073"
       style="fill:none;stroke:#000000;stroke-width:0.15875;stroke-linecap:round"
       d="m 112.03619,281.75998 v 11.42999 m 0,0 a 1.5000009,1.5000009 0 0 0 3,0 m 0,0 v -11.42999 m 0,0 a 1.5000009,1.5000009 0 0 0 -3,0" />
    <path
       id="path6005"
       style="fill:none;stroke:#000000;stroke-width:0.15875;stroke-linecap:round"
       d="m 180.21119,279.21997 a 1.27,1.27 0 0 0 -1.27,-1.26999 m 1.27,17.77999 v -16.51 m -1.27,17.78 a 1.27,1.27 0 0 0 1.27,-1.27 m -87.629999,1.27 h 86.359999 m -87.629999,-1.27 a 1.27,1.27 0 0 0 1.27,1.27 m -1.27,-1.27 v -8.25499 m 0,0 h 6.35 m 0,0 v -3.175 m 0,0 h -6.35 m 0,0 v -5.08001 m 1.27,-1.26999 a 1.27,1.27 0 0 0 -1.27,1.26999 m 87.629999,-1.26999 H 92.581191" />
    <g
       id="g1335"
       transform="translate(-37.041668,13.229165)">
      <path
         id="path1310"
         d="m 85.290661,167.72038 a 1.500001,1.500001 0 1 0 -3.000002,0 1.500001,1.500001 0 1 0 3.000002,0 z"
         style="fill:none;stroke:#000000;stroke-width:0.15875;stroke-linecap:round"
         inkscape:connector-curvature="0" />
      <path
         d="m 93.315658,172.33156 a 3,3 0 0 0 -1.118698,-2.33681 m -16.812601,0 a 3,3 0 0 0 -1.1187,2.33681 m 11.719851,-7.33747 6.21145,5.00066 m 1.118698,2.33681 v 8.08882 m -6.35,0 h 6.35 m -6.35,-3.175 v 3.175 m -6.349999,-3.175 h 6.349999 m -6.349999,0 v 3.175 m -6.35,0 h 6.35 m -6.35,-8.08882 v 8.08882 m 1.1187,-10.42563 6.211449,-5.00066 m 4.389702,0 a 3.4999998,3.4999998 0 0 0 -4.389702,0"
         style="fill:none;stroke:#000000;stroke-width:0.15875;stroke-linecap:round"
         id="path6031"
         inkscape:connector-curvature="0" />
    </g>
    <g
       id="g1366"
       transform="translate(-14.287503,34.925)">
      <path
         id="path1341"
         d="m 85.624054,145.71628 a 1.5,1.5 0 1 0 -2.999999,0 1.5,1.5 0 1 0 2.999999,0 z"
         style="fill:none;stroke:#000000;stroke-width:0.15875;stroke-linecap:round"
         inkscape:connector-curvature="0" />
      <path
         d="m 93.649055,150.32747 a 3,3 0 0 0 -1.118698,-2.33682 m -16.812602,0 a 3,3 0 0 0 -1.1187,2.33682 m 11.719851,-7.33747 6.211451,5.00065 m 1.118698,2.33682 v 8.08881 m -6.35,0 h 6.35 m -6.35,-3.175 v 3.175 m -6.35,-3.175 h 6.35 m -6.35,0 v 3.175 m -6.35,0 h 6.35 m -6.35,-8.08881 v 8.08881 m 1.1187,-10.42563 6.211449,-5.00065 m 4.389702,0 a 3.4999998,3.4999998 0 0 0 -4.389702,0"
         style="fill:none;stroke:#000000;stroke-width:0.15875;stroke-linecap:round"
         id="path6057"
         inkscape:connector-curvature="0" />
    </g>
    <g
       id="g1427"
       transform="rotate(90,35.666448,142.12372)">
      <path
         d="m 46.831862,107.90502 h 15.24 m 0,0 a 1.5,1.5 0 0 0 0,-3 m 0,0 h -15.24 m 0,0 a 1.5,1.5 0 0 0 0,3"
         style="fill:none;stroke:#000000;stroke-width:0.15875;stroke-linecap:round"
         id="path1408"
         inkscape:connector-curvature="0" />
      <path
         d="m 51.276862,98.467529 h -6.35 m 0,0 v 3.174991 m 0,0 h 6.35 m 0,0 v -3.174991"
         style="fill:none;stroke:#000000;stroke-width:0.15875;stroke-linecap:round"
         id="path1400"
         inkscape:connector-curvature="0" />
      <path
         d="m 44.751862,90.530071 a 3,3 0 0 0 -2.999999,2.999988 m 22.4,-2.999988 H 44.751862 m 22.4,2.999988 a 3,3 0 0 0 -2.999999,-2.999988 m 2.999999,16.049949 V 93.530059 m -2.999999,16.049961 a 3,3 0 0 0 2.999999,-3 m -22.4,3 h 19.400001 m -22.4,-16.049961 v 13.049961 m 0,0 a 3,3 0 0 0 2.999999,3"
         style="fill:none;stroke:#000000;stroke-width:0.15875;stroke-linecap:round"
         id="path1384"
         inkscape:connector-curvature="0" />
      <path
         d="m 63.976862,98.467529 h -6.35 m 0,0 v 3.174991 m 0,0 h 6.35 m 0,0 v -3.174991"
         style="fill:none;stroke:#000000;stroke-width:0.15875;stroke-linecap:round"
         id="path1376"
         inkscape:connector-curvature="0" />
      <path
         d="m 46.831862,95.20505 h 15.24 m 0,0 a 1.5,1.5 0 0 0 0,-2.999985 m 0,0 h -15.24 m 0,0 a 1.5,1.5 0 0 0 0,2.999985"
         style="fill:none;stroke:#000000;stroke-width:0.15875;stroke-linecap:round"
         id="path6105"
         inkscape:connector-curvature="0" />
    </g>
    <g
       id="g1304">
      <path
         d="M 5.9618493,192.04266 H 21.201849 m 0,0 a 1.5,1.5 0 0 0 0,-3 m 0,0 H 5.9618493 m 0,0 a 1.5,1.5 0 0 0 0,3"
         style="fill:none;stroke:#000000;stroke-width:0.15875;stroke-linecap:round"
         id="path1286" />
      <path
         d="m 10.406849,182.60516 h -6.35 m 0,0 v 3.175 m 0,0 h 6.35 m 0,0 v -3.175"
         style="fill:none;stroke:#000000;stroke-width:0.15875;stroke-linecap:round"
         id="path1278" />
      <path
         d="m 3.8818491,174.66766 a 3,3 0 0 0 -2.99999977,3 m 22.40000067,-3 H 3.8818489 m 22.4000011,3 a 3,3 0 0 0 -3.000002,-3 m 3.000002,16.05 v -13.05 m -3.000002,16.05 a 3,3 0 0 0 3.000002,-3 m -22.4000011,3 H 23.28185 m -22.40000067,-3 a 3,3 0 0 0 2.99999977,3 m -2.99999977,-16.05 v 13.05"
         style="fill:none;stroke:#000000;stroke-width:0.15875;stroke-linecap:round"
         id="path1262" />
      <path
         d="m 23.10685,182.60516 h -6.350001 m 0,0 v 3.175 m 0,0 h 6.350001 m 0,0 v -3.175"
         style="fill:none;stroke:#000000;stroke-width:0.15875;stroke-linecap:round"
         id="path1254" />
      <path
         d="M 5.9618493,179.34266 H 21.201849 m 0,0 a 1.5,1.5 0 0 0 0,-3 m 0,0 H 5.9618493 m 0,0 a 1.5,1.5 0 0 0 0,3"
         style="fill:none;stroke:#000000;stroke-width:0.15875;stroke-linecap:round"
         id="path6153" />
    </g>
    <g
       id="g1587"
       transform="rotate(180,128.12747,156.84656)">
      <path
         d="m 161.93835,146.7924 v 19.05 m 0,-19.05 a 1.5,1.5 0 0 0 -3,0 m 0,0 v 19.05 m 0,0 a 1.5,1.5 0 0 0 3,0"
         style="fill:none;stroke:#000000;stroke-width:0.15875;stroke-linecap:round"
         id="path1543"
         inkscape:connector-curvature="0" />
      <path
         d="m 112.66235,146.7924 v 19.05 m 0,-19.05 a 1.5,1.5 0 0 0 -3,0 m 0,0 v 19.05 m 0,0 a 1.5,1.5 0 0 0 3,0"
         style="fill:none;stroke:#000000;stroke-width:0.15875;stroke-linecap:round"
         id="path1541"
         inkscape:connector-curvature="0" />
      <path
         id="path1537"
         d="m 137.30035,137.2674 a 1.5,1.5 0 1 0 -3,0 1.5,1.5 0 1 0 3,0 z"
         style="fill:none;stroke:#000000;stroke-width:0.15875;stroke-linecap:round"
         inkscape:connector-curvature="0" />
      <path
         id="path1535"
         d="m 137.30035,175.3674 a 1.5,1.5 0 1 0 -3,0 1.5,1.5 0 1 0 3,0 z"
         style="fill:none;stroke:#000000;stroke-width:0.15875;stroke-linecap:round"
         inkscape:connector-curvature="0" />
      <path
         d="m 156.35035,144.3794 a 0.76199999,0.76199999 0 0 0 -0.762,-0.762 m -39.576,0 a 0.76199999,0.76199999 0 0 0 -0.762,0.762 m 0,23.876 a 0.76199999,0.76199999 0 0 0 0.762,0.762 m 39.576,0 a 0.76199999,0.76199999 0 0 0 0.762,-0.762 m -40.338,-24.638 h 39.576 m -40.338,24.638 v -23.876 m 0.762,24.638 h 39.576 m 0.762,-0.762 v -23.876"
         style="fill:none;stroke:#000000;stroke-width:0.15875;stroke-linecap:round"
         id="path1525"
         inkscape:connector-curvature="0" />
      <path
         d="m 139.61035,132.1874 a 25.4,25.4 0 0 0 15.24,5.08 m 12.7,0.762 a 0.76199999,0.76199999 0 0 0 -0.762,-0.762 m 0,38.1 a 0.76199999,0.76199999 0 0 0 0.762,-0.762 m -12.7,0.762 a 25.4,25.4 0 0 0 -15.24,5.08 m -7.62,0 a 25.4,25.4 0 0 0 -15.24,-5.08 m -12.7,-0.762 a 0.76199999,0.76199999 0 0 0 0.762,0.762 m 0,-38.1 a 0.76199999,0.76199999 0 0 0 -0.762,0.762 m 12.7,-0.762 a 25.4,25.4 0 0 0 15.24,-5.08 m -27.94,42.418 v -36.576 m 12.7,-0.762 h -11.938 m 34.798,-5.08 a 6.3499999,6.3499999 0 0 0 -7.62,0 m 22.86,5.08 h 11.938 m 0.762,0.762 v 36.576 m -12.7,0.762 h 11.938 m -34.798,5.08 a 6.3499999,6.3499999 0 0 0 7.62,0 m -34.798,-5.08 h 11.938"
         style="fill:none;stroke:#000000;stroke-width:0.15875;stroke-linecap:round"
         id="path6221"
         inkscape:connector-curvature="0" />
    </g>
    <g
       id="g1507"
       transform="translate(0,11.1125)">
      <path
         d="m 60.252741,131.66949 v 19.05 m 0,-19.05 a 1.5,1.5 0 0 0 -2.999999,0 m 0,0 v 19.05 m 0,0 a 1.5,1.5 0 0 0 2.999999,0"
         style="fill:none;stroke:#000000;stroke-width:0.15875;stroke-linecap:round"
         id="path1463"
         inkscape:connector-curvature="0" />
      <path
         d="m 10.976742,131.66949 v 19.05 m 0,-19.05 a 1.5000002,1.5000002 0 0 0 -3.0000004,0 m 0,0 v 19.05 m 0,0 a 1.5000002,1.5000002 0 0 0 3.0000004,0"
         style="fill:none;stroke:#000000;stroke-width:0.15875;stroke-linecap:round"
         id="path1461"
         inkscape:connector-curvature="0" />
      <path
         id="path1457"
         d="m 35.614741,122.14449 a 1.5,1.5 0 1 0 -2.999999,0 1.5,1.5 0 1 0 2.999999,0 z"
         style="fill:none;stroke:#000000;stroke-width:0.15875;stroke-linecap:round"
         inkscape:connector-curvature="0" />
      <path
         id="path1455"
         d="m 35.614741,160.24449 a 1.5,1.5 0 1 0 -2.999999,0 1.5,1.5 0 1 0 2.999999,0 z"
         style="fill:none;stroke:#000000;stroke-width:0.15875;stroke-linecap:round"
         inkscape:connector-curvature="0" />
      <path
         d="m 54.664741,129.25649 a 0.76199999,0.76199999 0 0 0 -0.762,-0.762 m -39.575999,0 a 0.76199999,0.76199999 0 0 0 -0.762,0.762 m 0,23.876 a 0.76199999,0.76199999 0 0 0 0.762,0.762 m 39.575999,0 a 0.76199999,0.76199999 0 0 0 0.762,-0.762 m -40.337999,-24.638 h 39.575999 m -40.337999,24.638 v -23.876 m 0.762,24.638 h 39.575999 m 0.762,-0.762 v -23.876"
         style="fill:none;stroke:#000000;stroke-width:0.15875;stroke-linecap:round"
         id="path1445"
         inkscape:connector-curvature="0" />
      <path
         d="m 37.924741,117.06449 a 25.4,25.4 0 0 0 15.24,5.08 m 12.7,0.762 a 0.76199999,0.76199999 0 0 0 -0.762,-0.762 m 0,38.1 a 0.76199999,0.76199999 0 0 0 0.762,-0.762 m -12.7,0.762 a 25.4,25.4 0 0 0 -15.24,5.08 m -7.62,0 a 25.4,25.4 0 0 0 -15.239999,-5.08 m -12.7000002,-0.762 a 0.76199999,0.76199999 0 0 0 0.762,0.762 m 0,-38.1 a 0.76199999,0.76199999 0 0 0 -0.762,0.762 m 12.7000002,-0.762 a 25.4,25.4 0 0 0 15.239999,-5.08 m -27.9399992,42.418 v -36.576 m 12.7000002,-0.762 H 3.1267418 m 34.7979992,-5.08 a 6.3499999,6.3499999 0 0 0 -7.62,0 m 22.86,5.08 h 11.938 m 0.762,0.762 v 36.576 m -12.7,0.762 h 11.938 m -34.798,5.08 a 6.3499999,6.3499999 0 0 0 7.62,0 m -34.7979992,-5.08 H 15.064742"
         style="fill:none;stroke:#000000;stroke-width:0.15875;stroke-linecap:round"
         id="path6289"
         inkscape:connector-curvature="0" />
    </g>
    <path
       id="path1227"
       style="fill:none;stroke:#000000;stroke-width:0.15875;stroke-linecap:round"
       d="m 61.824998,293.0568 v -11.43 m 0,0 a 1.5,1.5 0 0 0 -2.999999,0 m 0,0 v 11.43 m 0,0 a 1.5,1.5 0 0 0 2.999999,0" />
    <path
       id="path1219"
       style="fill:none;stroke:#000000;stroke-width:0.15875;stroke-linecap:round"
       d="m 82.549998,284.1668 h -6.35 m 0,0 v 3.175 m 0,0 h 6.35 m 0,0 v -3.175" />
    <path
       id="path1211"
       style="fill:none;stroke:#000000;stroke-width:0.15875;stroke-linecap:round"
       d="m 69.849998,284.1668 h -6.35 m 0,0 v 3.175 m 0,0 h 6.35 m 0,0 v -3.175" />
    <path
       id="path1203"
       style="fill:none;stroke:#000000;stroke-width:0.15875;stroke-linecap:round"
       d="m 57.149999,284.1668 h -6.35 m 0,0 v 3.175 m 0,0 h 6.35 m 0,0 v -3.175" />
    <path
       id="path1195"
       style="fill:none;stroke:#000000;stroke-width:0.15875;stroke-linecap:round"
       d="m 44.449999,284.1668 h -6.35 m 0,0 v 3.175 m 0,0 h 6.35 m 0,0 v -3.175" />
    <path
       id="path1187"
       style="fill:none;stroke:#000000;stroke-width:0.15875;stroke-linecap:round"
       d="m 31.749999,284.1668 h -6.35 m 0,0 v 3.175 m 0,0 h 6.35 m 0,0 v -3.175" />
    <path
       id="path1179"
       style="fill:none;stroke:#000000;stroke-width:0.15875;stroke-linecap:round"
       d="M 19.05,284.1668 H 12.7 m 0,0 v 3.175 m 0,0 h 6.35 m 0,0 v -3.175" />
    <path
       id="path1171"
       style="fill:none;stroke:#000000;stroke-width:0.15875;stroke-linecap:round"
       d="m 20.725,281.6268 v 11.43 m 0,0 a 1.5,1.5 0 0 0 2.999999,0 m 0,0 v -11.43 m 0,0 a 1.5,1.5 0 0 0 -2.999999,0" />
    <path
       id="path6377"
       style="fill:none;stroke:#000000;stroke-width:0.15875;stroke-linecap:round"
       d="m 88.899998,279.0868 a 1.27,1.27 0 0 0 -1.27,-1.27 m 1.27,17.78 v -16.51 m -1.27,17.78 a 1.27,1.27 0 0 0 1.27,-1.27 M 1.27,296.8668 H 87.629998 M 1.554899e-8,295.5968 A 1.27,1.27 0 0 0 1.27,296.8668 M 1.554899e-8,295.5968 v -8.255 m 0,0 H 6.3499999 m 0,0 v -3.175 m 0,0 H 1.5548991e-8 m -1e-15,0 v -5.08 M 1.27,277.8168 A 1.27,1.27 0 0 0 1.554899e-8,279.0868 M 87.629998,277.8168 H 1.27" />
  </g>
</svg>
